<svg width="720" height="70" viewBox="0 0 720 70" fill="none" xmlns="http://www.w3.org/2000/svg">
<path d="M720 70L720 23.2347C717.534 23.2347 715.068 25.6949 715.068 25.6949C710.137 25.6949 707.671 25.6949 705.205 23.2347L702.74 23.2347C702.74 23.2347 700.274 20.7745 702.74 20.7745C702.74 18.3144 702.74 18.3144 700.274 18.3144C700.274 23.2347 692.877 20.7745 685.479 20.7745C683.014 20.7745 680.548 20.7745 678.082 20.7745C675.616 20.7745 673.151 20.7745 670.685 20.7745C670.685 20.7745 670.685 23.2347 668.219 23.2347C663.288 20.7746 658.356 23.2347 653.425 23.2347C650.959 20.7746 648.493 23.2347 646.027 23.2347L646.027 20.7745C643.562 20.7745 643.562 23.2347 641.096 23.2347C641.096 23.2347 638.63 23.2347 638.63 25.6949C638.63 25.6949 636.164 25.6949 638.63 28.1551L638.63 30.6153L636.164 30.6153C631.233 33.0754 628.767 35.5356 626.301 35.5356L623.836 35.5356C621.37 35.5356 621.37 35.5356 621.37 35.5356L618.904 35.5356C618.904 30.6152 611.507 30.6153 611.507 28.1551C606.575 28.1551 594.247 28.1551 594.247 20.7745C591.781 20.7745 591.781 18.3144 589.315 20.7745C589.315 23.2347 591.781 23.2347 591.781 23.2347C589.315 23.2347 589.315 23.2347 586.849 23.2347C586.849 20.7745 586.849 20.7745 586.849 20.7745C586.849 18.3144 584.384 20.7745 581.918 20.7745L579.452 20.7745C576.986 20.7745 576.986 20.7745 574.521 20.7745C572.055 20.7745 569.589 20.7745 569.589 20.7745C567.123 20.7745 564.658 20.7745 562.192 20.7745L559.726 20.7745C559.726 18.3144 557.26 20.7745 554.795 20.7745C552.329 20.7745 552.329 20.7745 549.863 20.7745L547.397 20.7745C547.397 18.3144 542.466 20.7746 540 18.3144C540 15.8542 542.466 15.8542 540 15.8542C540 15.8542 537.534 15.8542 535.069 15.8542C532.603 15.8542 532.603 15.8542 530.137 15.8542C530.137 13.394 532.603 13.394 535.069 10.9338C532.603 10.9338 535.069 8.47365 532.603 8.47365C530.137 8.47365 530.137 13.394 527.671 10.9338C530.137 10.9338 530.137 13.394 527.671 13.394L527.671 15.8542C522.74 13.394 520.274 18.3144 515.342 15.8542C510.411 15.8542 512.877 13.394 512.877 10.9338C510.411 13.394 507.945 13.394 507.945 13.394C507.945 10.9339 510.411 10.9338 510.411 10.9338L507.945 10.9338C507.945 13.394 507.945 13.394 507.945 15.8542L505.479 15.8542C505.479 15.8542 505.479 13.394 503.014 13.394C503.014 15.8542 495.616 10.9339 500.548 13.394C498.082 15.8542 498.082 10.9339 493.151 13.394C498.082 13.394 498.082 13.394 493.151 10.9338C493.151 13.394 493.151 15.8542 490.685 15.8542L490.685 18.3144C485.753 15.8542 485.753 18.3144 483.288 18.3144L483.288 15.8542C483.288 13.394 480.822 15.8542 478.356 15.8542C475.89 15.8542 473.425 13.394 473.425 15.8542C470.959 15.8542 468.493 15.8542 468.493 13.394L466.027 13.394C463.562 13.394 463.562 13.394 461.096 13.394C458.63 8.47367 463.562 13.394 463.562 10.9338C461.096 10.9338 458.63 10.9338 456.164 10.9338C453.699 10.9338 453.699 13.394 453.699 13.394C448.767 10.9338 448.767 13.394 446.301 13.394C443.836 15.8542 441.37 18.3143 443.836 20.7745C438.904 20.7745 438.904 23.2347 436.438 20.7745L433.973 20.7745C433.973 23.2347 429.041 23.2347 433.973 25.6949C431.507 25.6949 431.507 28.1551 429.041 25.6949C429.041 28.1551 426.575 28.1551 426.575 28.1551L424.11 28.1551C424.11 25.6949 421.644 25.6949 419.178 25.6949C419.178 25.6949 419.178 25.6949 419.178 23.2347C414.247 23.2347 416.712 30.6152 419.178 28.1551C416.712 28.1551 414.247 28.1551 414.247 30.6152C414.247 28.1551 411.781 30.6152 411.781 30.6152C411.781 30.6152 414.247 28.1551 411.781 28.1551C409.315 28.1551 411.781 25.6949 411.781 25.6949L409.315 25.6949C406.849 25.6949 406.849 25.6949 406.849 28.1551C409.315 28.1551 409.315 28.1551 409.315 30.6152C406.849 30.6152 406.849 30.6152 404.384 30.6152C401.918 35.5356 409.315 33.0754 409.315 35.5356C406.849 35.5356 404.384 35.5356 404.384 35.5356C401.918 35.5356 396.986 35.5356 396.986 37.9958C394.521 40.4559 394.521 35.5356 389.589 37.9958C389.589 35.5356 384.658 37.9957 387.123 35.5356C387.123 33.0754 384.658 33.0754 379.726 33.0754L382.192 35.5356L379.726 35.5356C377.26 33.0754 374.795 33.0754 374.795 30.6152L374.795 33.0754L372.329 33.0754C369.863 33.0754 369.863 35.5356 367.397 33.0754L364.932 33.0754L362.466 33.0754C362.466 35.5356 362.466 33.0754 360 33.0754C357.534 33.0754 357.534 35.5356 357.534 33.0754C355.069 33.0754 352.603 33.0754 352.603 30.6152L352.603 33.0754C352.603 35.5356 355.068 33.0754 355.068 35.5356C355.068 35.5356 355.068 35.5356 355.068 37.9958C352.603 37.9958 350.137 37.9958 347.671 37.9958C345.205 37.9958 345.206 37.9958 342.74 37.9958C342.74 33.0754 347.671 35.5356 350.137 30.6152L347.671 30.6152L345.206 30.6152C342.74 33.0754 340.274 35.5356 337.808 35.5356C335.343 35.5356 332.877 35.5356 332.877 33.0754C330.411 35.5356 327.945 35.5356 325.479 37.9958C325.479 40.4559 318.082 40.4559 323.014 45.3763C323.014 47.8365 320.548 45.3763 320.548 47.8365C315.616 47.8365 313.151 50.2966 310.685 52.7568C308.219 52.7568 305.753 52.7568 305.753 52.7568C305.753 52.7568 305.753 50.2966 303.288 50.2966C303.288 50.2966 303.288 52.7568 300.822 52.7568C300.822 50.2966 298.356 50.2966 298.356 52.7568C295.89 52.7568 298.356 47.8365 295.89 47.8365C295.89 47.8365 295.89 47.8365 293.425 47.8365C293.425 52.7568 288.493 47.8365 286.027 47.8365C283.562 45.3763 278.63 47.8365 276.164 47.8365C276.164 45.3763 278.63 47.8365 278.63 45.3763C276.164 42.9161 276.164 45.3763 276.164 47.8365L273.699 47.8365C271.233 47.8365 271.233 47.8365 271.233 50.2966C266.301 50.2966 268.767 47.8365 258.904 50.2966C256.438 52.7568 253.973 50.2966 251.507 50.2966C251.507 50.2966 249.041 47.8364 251.507 47.8364C246.575 45.3763 246.575 50.2966 244.11 47.8364L241.644 47.8364C241.644 47.8364 241.644 47.8365 241.644 50.2966C239.178 50.2966 239.178 50.2966 236.712 50.2966L236.712 47.8364C234.247 47.8364 234.247 50.2966 231.781 47.8364C229.315 45.3763 231.781 40.4559 234.247 40.4559C229.315 40.4559 234.247 37.9957 231.781 37.9957C229.315 40.4559 226.849 37.9957 229.315 35.5356C226.849 35.5356 226.849 35.5356 224.384 35.5356L221.918 35.5356C219.452 35.5356 216.986 33.0754 214.521 35.5356L212.055 35.5356L209.589 35.5356C209.589 35.5356 209.589 35.5356 207.123 35.5356C207.123 35.5356 204.658 37.9957 202.192 37.9957C199.726 37.9957 199.726 37.9957 199.726 37.9957C202.192 37.9957 207.123 35.5356 197.26 35.5356L194.795 35.5356C189.863 33.0754 192.329 37.9957 194.795 37.9957C194.795 37.9957 194.795 37.9957 192.329 37.9957C192.329 37.9957 192.329 37.9957 189.863 37.9957C184.932 35.5356 182.466 37.9957 177.534 37.9957C177.534 35.5356 180 35.5356 175.069 35.5356L175.069 37.9957C172.603 37.9957 172.603 37.9957 170.137 37.9957C167.671 35.5356 172.603 35.5356 170.137 35.5356C167.671 35.5356 167.671 37.9957 165.206 35.5356C162.74 35.5356 162.74 35.5356 162.74 33.0754C160.274 33.0754 165.206 30.6152 162.74 28.155C160.274 28.155 157.808 30.6152 155.343 28.155C147.945 33.0754 152.877 35.5355 147.945 35.5355L145.479 35.5355L143.014 35.5355L140.548 35.5355L140.548 33.0754L138.082 33.0754L138.082 35.5355C135.616 35.5355 135.617 35.5356 135.617 37.9957C135.617 37.9957 135.617 35.5355 133.151 35.5355C130.685 35.5355 130.685 35.5355 130.685 35.5355C130.685 37.9957 128.219 35.5355 128.219 35.5355C123.288 35.5355 120.822 33.0754 118.356 30.6152C115.891 28.155 115.891 25.6949 118.356 25.6949L118.356 23.2347C115.891 23.2347 115.89 25.6949 113.425 25.6949L110.959 25.6949L110.959 23.2347L113.425 23.2347L113.425 20.7745C110.959 20.7745 108.493 18.3143 106.027 18.3143C106.027 15.8542 106.027 15.8542 106.027 15.8542L108.493 13.394L108.493 10.9338C103.562 13.394 98.6302 13.394 98.6302 10.9338L96.1645 10.9338L93.6987 8.47361C93.6987 8.47361 93.6987 8.47361 96.1645 8.47361L96.1645 6.01345C96.1645 6.01345 93.6987 6.01345 91.2329 6.01345C91.2329 6.01345 91.233 6.01345 88.7672 6.01345C88.7672 6.01345 86.3015 6.01343 86.3015 3.55326C83.8357 3.55326 86.3015 3.55327 86.3015 6.01345C83.8357 6.01345 83.8357 6.01345 83.8357 6.01345C83.8357 6.01345 83.8357 6.01343 83.8357 3.55326C81.3699 3.55326 81.3699 3.55327 81.3699 6.01345C81.3699 6.01345 81.3699 6.01345 78.9042 6.01345L76.4384 6.01345L71.507 3.55326C71.507 3.55326 71.507 6.01345 69.0412 6.01345C69.0412 6.01345 69.0412 3.55326 71.507 3.55326L71.507 1.09311C69.0412 1.09311 69.0412 3.55327 69.0412 6.01345L66.5754 6.01345L69.0412 3.55326C64.1097 1.09308 61.6439 8.47361 61.6439 3.55326L59.1782 3.55326C56.7124 -1.36709 59.1782 1.09308 54.2466 3.55326C51.7809 3.55326 44.3836 3.55326 39.4521 3.55325C36.9863 6.01343 36.9864 1.09311 32.0549 1.09311C32.0549 1.09311 32.0549 1.09311 29.5891 1.09311C27.1234 1.09311 27.1234 1.09311 29.5891 1.09311C27.1234 1.09311 24.6577 1.09311 22.1919 1.09311C19.7261 1.09311 12.3288 -1.36707 12.3288 1.09311C9.86304 3.55328 4.93159 -1.36707 6.70592e-05 1.09311L6.10352e-05 69.9999L720 70Z" fill="white"/>
</svg>
