<svg width="600" height="57" viewBox="0 0 600 57" fill="none" xmlns="http://www.w3.org/2000/svg">
<path fill-rule="evenodd" clip-rule="evenodd" d="M0 54.2V0H600V8.86667H597.74L590.959 11.1333C590.959 13.4 588.699 13.4 588.699 13.4C588.699 15.6667 586.438 15.6667 584.178 15.6667V13.4C584.178 15.6667 584.178 15.6667 581.918 15.6667V13.4C580.377 13.4 579.887 14.4533 579.73 14.4059C579.658 14.3837 579.658 14.1215 579.658 13.4H577.397H575.137C577.397 15.6667 579.658 15.6667 581.918 15.6667C581.918 16.8 581.353 16.8 580.788 16.8C580.223 16.8 579.658 16.8 579.658 17.9333C579.658 15.6667 572.877 17.9333 572.877 17.9333C572.877 16.8 572.877 16.8 572.594 17.0833C572.312 17.3667 571.747 17.9333 570.616 17.9333C567.968 15.2778 566.096 16.5112 564.545 17.533C563.448 18.2555 562.512 18.8722 561.575 17.9333C560.178 16.5325 559.645 16.8632 558.907 17.3202C558.452 17.6026 557.918 17.9333 557.055 17.9333C555.925 16.8 554.794 16.8 553.382 16.8C551.969 16.8 550.274 16.8 548.014 15.6667C546.884 15.6667 546.884 14.5333 546.884 13.4C546.884 12.2667 546.884 11.1333 545.753 11.1333H543.493C543.493 11.1333 545.753 11.1333 543.493 13.4C542.363 14.5333 542.363 15.6667 542.363 16.8C542.363 17.9333 542.363 19.0667 541.233 20.2C540.479 20.2 539.726 20.4519 538.973 20.7037C537.466 21.2074 535.959 21.7111 534.452 20.2C535.237 20.2 535.749 19.9266 536.084 19.5697C535.415 20.2 534.452 20.2 534.452 20.2C534.452 22.4667 532.192 22.4667 532.192 22.4667H527.671H523.151C523.151 23.3325 523.48 23.8675 523.762 24.3246C524.218 25.064 524.548 25.5991 523.151 27H516.37C514.11 27 514.11 29.2667 514.11 29.2667C514.11 32.8488 511.287 30.7699 511.218 30.8581C511.199 30.8815 511.375 31.0577 511.849 31.5333C511.096 31.5333 510.342 31.2815 509.589 31.0296C508.082 30.5259 506.575 30.0222 505.068 31.5333V29.2667C503.939 29.2667 503.374 29.2667 503.092 29.5492C502.808 29.8323 502.808 30.3989 502.808 31.5333C501.678 32.6667 501.113 32.1 500.548 31.5333C499.983 30.9667 499.418 30.4 498.288 31.5333C497.158 31.5333 496.027 30.9667 494.897 30.4C493.767 29.8333 492.637 29.2667 491.507 29.2667H489.247H486.986H484.726C483.329 27.8658 482.796 28.1965 482.058 28.6535C481.649 28.9071 481.177 29.1994 480.46 29.2566C480.379 29.2632 480.294 29.2667 480.205 29.2667C479.075 31.5333 479.075 33.2333 479.075 34.65C479.075 36.0667 479.075 37.2 477.945 38.3333C476.438 38.3333 474.931 38.0815 473.425 37.8296C470.411 37.3259 467.397 36.8222 464.384 38.3333C464.384 39.0549 464.384 39.317 464.311 39.3392C464.155 39.3866 463.664 38.3333 462.123 38.3333C459.749 37.1429 457.375 37.8281 455.328 38.4188C453.478 38.9528 451.895 39.4096 450.822 38.3333C448.562 36.0667 448.562 38.3333 448.562 40.6C445.724 42.0228 444.668 40.7662 443.715 39.6335C443.15 38.9616 442.622 38.3333 441.781 38.3333H439.521C439.521 37.1989 439.521 36.6323 439.237 36.3492C438.954 36.0667 438.389 36.0667 437.26 36.0667V38.3333L416.918 32.2133V33.8C415.789 33.8 415.224 33.8 414.941 33.5175C414.658 33.2344 414.658 32.6677 414.658 31.5333H412.397L414.658 33.8H410.137H407.877C405.616 33.8 403.356 33.8 403.356 36.0667H401.096V33.8C399.646 33.8 400.056 34.7324 399.94 34.8032C399.875 34.8427 399.646 34.6129 398.836 33.8H396.575C394.315 29.2667 392.055 29.2667 392.055 29.2667L385.274 27C385.274 27 383.014 24.7333 380.753 24.7333C379.623 25.8667 379.058 27 378.493 28.1333C377.928 29.2667 377.363 30.4 376.233 31.5333C373.973 31.5333 373.973 29.2667 373.973 27C371.712 24.7333 371.712 29.2667 371.712 29.2667C371.712 29.9882 371.712 30.2504 371.639 30.2725C371.483 30.3199 370.993 29.2667 369.452 29.2667L367.192 27H364.931H362.671V24.7333H360.411H358.151C357.021 24.7333 356.455 25.3 355.89 25.8667C355.325 26.4333 354.76 27 353.63 27C353.63 25.8667 353.065 25.3 352.5 24.7333C351.935 24.1667 351.37 23.6 351.37 22.4667H349.11C348.246 23.3325 347.383 23.8675 346.646 24.3246C345.452 25.064 344.589 25.5991 344.589 27C344.589 27 344.589 29.2667 342.329 29.2667H340.069H337.808C336.678 29.2667 336.678 29.8333 336.678 30.4C336.678 30.9667 336.678 31.5333 335.548 31.5333C334.612 32.4722 334.839 31.4666 335.105 30.2885C335.481 28.6223 335.936 26.6111 333.288 29.2667V31.5333C331.027 31.5333 330.462 32.6667 329.897 33.8C329.332 34.9333 328.767 36.0667 326.507 36.0667C325.11 34.6658 324.576 34.9965 323.839 35.4535C323.383 35.736 322.85 36.0667 321.986 36.0667C321.986 36.0667 319.726 33.8 319.726 36.0667C317.466 36.0667 317.466 38.3333 317.466 38.3333L312.945 42.8667V45.1333C312.945 43.7325 312.082 44.0632 310.889 44.5202C310.151 44.8026 309.288 45.1333 308.425 45.1333C308.425 42.8667 306.164 47.4 306.164 47.4C305.034 47.4 305.034 47.9667 305.034 48.5333C305.034 49.1 305.034 49.6667 303.904 49.6667C301.256 49.6667 300.935 50.4445 300.669 51.0888C300.48 51.5444 300.32 51.9333 299.384 51.9333H294.863H292.603C294.863 51.9333 294.863 54.2 294.863 54.2H288.082H285.822H283.562H281.301H279.041L274.521 51.9333H272.26H270V49.6667C268.7 50.9707 268.147 51.5245 267.482 51.7597C266.992 51.9333 266.439 51.9333 265.479 51.9333V49.6667H263.219C262.356 50.5325 261.492 51.0675 260.755 51.5246C259.562 52.264 258.699 52.7991 258.699 54.2C258.699 56.6869 258.018 56.4453 257.031 56.0945C256.219 55.8059 255.198 55.4435 254.178 56.4667V54.2C251.918 56.4667 249.658 56.4667 247.397 56.4667C247.397 54.2 245.137 54.2 245.137 54.2C244.201 54.2 243.652 53.8111 243.01 53.3555C242.101 52.7111 241.004 51.9333 238.356 51.9333V54.2V56.4667C237.365 56.4667 237.678 55.5952 237.96 54.8075C238.322 53.7986 238.634 52.9272 236.096 54.2V52.8896C235.672 52.7833 234.966 52.5 233.836 51.9333C232.439 53.3342 231.905 53.0035 231.168 52.5465C230.712 52.264 230.178 51.9333 229.315 51.9333C229.315 51.0675 229.645 50.2018 229.926 49.4623C230.382 48.2658 230.712 47.4 229.315 47.4C229.315 49.6667 227.055 49.6667 227.055 49.6667C224.795 49.6667 224.229 49.1 223.664 48.5333C223.099 47.9667 222.534 47.4 220.274 47.4C220.274 45.1333 222.534 45.1333 222.534 45.1333H220.274H215.753V42.8667H213.493C213.493 45.1333 211.233 42.8667 211.233 42.8667H206.712C204.902 42.8667 204.542 39.9582 204.47 39.9653C204.452 39.9671 204.452 40.1489 204.452 40.6V45.1333H202.192C201.062 45.1333 200.497 44.5667 199.932 44C199.366 43.4333 198.801 42.8667 197.671 42.8667V40.6H195.411L190.89 45.1333C190.89 45.1333 193.151 42.8667 190.89 42.8667C190.89 41.9278 190.115 42.5445 189.206 43.267C187.921 44.2888 186.37 45.5222 186.37 42.8667C185.24 41.7333 185.24 42.3 185.24 43.4333C185.24 44.5667 185.24 46.2667 184.11 47.4C184.11 47.4 181.849 45.1333 184.11 45.1333C184.11 45.1333 182.545 45.1333 182.019 43.8282C181.964 43.8851 181.907 43.9426 181.849 44C181.284 44.5667 180.719 45.1333 181.849 45.1333C180.626 46.3605 180.064 44.9302 179.448 43.3602C178.927 42.0302 178.365 40.6 177.329 40.6C175.068 40.6 175.068 40.6 175.068 42.8667C172.808 42.8667 170.548 40.6 170.548 38.3333C168.288 38.3333 166.027 38.3333 166.027 40.6C165.274 39.8444 164.772 38.837 164.353 37.9975C163.516 36.3185 163.014 35.3111 161.507 38.3333H159.247C159.247 38.3333 156.986 36.0667 150.205 38.3333C150.205 38.3333 145.685 36.0667 143.425 33.8H141.164C140.301 33.8 139.438 33.4693 138.7 33.1868C137.507 32.7298 136.644 32.3991 136.644 33.8C135.194 33.8 135.604 32.8676 135.488 32.7968C135.423 32.7573 135.194 32.9871 134.384 33.8C134.384 31.0548 132.726 32.4655 130.916 34.0055C129.738 35.0087 128.494 36.0667 127.603 36.0667V38.3333C126.473 38.3333 125.908 37.7667 125.342 37.2C124.777 36.6333 124.212 36.0667 123.082 36.0667C120.822 36.0667 120.822 36.0667 120.822 33.8H118.562V31.5333C116.301 29.2667 116.301 33.8 116.301 33.8H109.521C109.521 33.0785 109.521 32.8163 109.448 32.7941C109.292 32.7467 108.801 33.8 107.26 33.8C107.26 32.6667 106.695 32.1 106.13 31.5333C105.565 30.9667 105 30.4 105 29.2667V31.5333C103.721 30.251 102.443 31.1451 101.573 31.753C100.906 32.2196 100.479 32.5177 100.479 31.5333H98.2192C98.2192 31.5333 98.2192 33.8 95.9589 36.0667C95.9589 36.992 95.5822 36.7841 94.8288 36.3681C93.7367 35.7652 91.8531 34.7254 89.1781 36.0667C86.9178 36.0667 84.6575 36.0667 84.6575 38.3333V36.0667C82.3973 36.0667 80.137 36.0667 80.137 38.3333H77.8767C77.8767 36.0667 75.6164 40.6 75.6164 40.6C75.6164 40.6 75.6164 38.3333 73.3562 36.0667H71.0959H68.8356C68.8356 33.8 69.9658 32.6667 70.8134 31.8167C71.6609 30.9667 72.226 30.4 71.0959 29.2667C71.0959 30.4 70.5308 30.9667 69.9658 31.5333C69.4007 32.1 68.8356 32.6667 68.8356 33.8C67.8669 32.8286 66.8982 33.1061 65.9296 33.3837C64.638 33.7537 63.3464 34.1238 62.0548 31.5333C61.1914 32.3991 60.6579 33.2649 60.2021 34.0044C59.4647 35.2009 58.9312 36.0667 57.5342 36.0667H55.274C54.1449 36.0667 53.5798 36.0667 53.297 36.3492C53.0137 36.6323 53.0137 37.1989 53.0137 38.3333C50.7534 38.3333 48.4931 38.3333 50.7534 36.0667C49.6233 34.9333 49.0582 35.5 48.4931 36.0667C47.9281 36.6333 47.363 37.2 46.2329 36.0667C45.1027 36.0667 44.5377 36.6333 43.9726 37.2C43.4075 37.7667 42.8425 38.3333 41.7123 38.3333C40.3154 39.7342 40.6452 40.2693 41.1009 41.0088C41.3826 41.4658 41.7123 42.0009 41.7123 42.8667H39.4521C38.3219 42.8667 37.1918 43.4333 36.0616 44C34.9315 44.5667 33.8014 45.1333 32.6712 45.1333C31.8079 45.1333 30.9445 45.464 30.2071 45.7465C29.014 46.2035 28.1507 46.5342 28.1507 45.1333C27.0205 45.1333 26.4555 46.2667 25.8904 47.4C25.3253 48.5333 24.7603 49.6667 23.6301 49.6667V47.4C22.7668 47.4 22.2332 47.7307 21.7775 48.0132C21.0401 48.4702 20.5065 48.8009 19.1096 47.4H16.8493C16.8493 49.6667 14.589 49.6667 14.589 49.6667C13.4589 49.6667 12.8938 49.1 12.3288 48.5333C11.7637 47.9667 11.1986 47.4 10.0685 47.4C8.93835 49.6667 7.24315 50.2333 5.54794 50.8C3.85274 51.3667 2.15753 51.9333 1.0274 54.2H0ZM198.358 42.9778C197.974 42.8667 197.671 42.8667 197.671 42.8667C197.974 42.8667 198.196 42.9074 198.358 42.9778ZM198.358 42.9778C199.023 43.1703 199.931 43.6963 199.931 45.1333C198.801 45.1333 198.801 44.5667 198.801 44C198.801 43.5852 198.801 43.1704 198.358 42.9778ZM482.466 27C482.466 27.7874 482.193 28.3012 481.837 28.6366C482.466 27.9658 482.466 27 482.466 27ZM581.918 15.6667C581.918 17.1877 583.953 17.6881 583.927 17.8527C583.914 17.9333 583.405 17.9333 581.918 17.9333V15.6667Z" fill="white"/>
</svg>
