<svg width="720" height="405" viewBox="0 0 720 405" fill="none" xmlns="http://www.w3.org/2000/svg">
<path d="M720 405L720 358.235C717.534 358.235 715.068 360.695 715.068 360.695C710.137 360.695 707.671 360.695 705.205 358.235L702.74 358.235C702.74 358.235 700.274 355.775 702.74 355.775C702.74 353.314 702.74 353.314 700.274 353.314C700.274 358.235 692.877 355.775 685.479 355.775C683.014 355.775 680.548 355.775 678.082 355.775C675.616 355.775 673.151 355.775 670.685 355.775C670.685 355.775 670.685 358.235 668.219 358.235C663.288 355.775 658.356 358.235 653.425 358.235C650.959 355.775 648.493 358.235 646.027 358.235L646.027 355.775C643.562 355.775 643.562 358.235 641.096 358.235C641.096 358.235 638.63 358.235 638.63 360.695C638.63 360.695 636.164 360.695 638.63 363.155L638.63 365.615L636.164 365.615C631.233 368.075 628.767 370.536 626.301 370.536L623.836 370.536C621.37 370.536 621.37 370.536 621.37 370.536L618.904 370.536C618.904 365.615 611.507 365.615 611.507 363.155C606.575 363.155 594.247 363.155 594.247 355.775C591.781 355.775 591.781 353.314 589.315 355.775C589.315 358.235 591.781 358.235 591.781 358.235C589.315 358.235 589.315 358.235 586.849 358.235C586.849 355.775 586.849 355.775 586.849 355.775C586.849 353.314 584.384 355.775 581.918 355.775L579.452 355.775C576.986 355.775 576.986 355.775 574.521 355.775C572.055 355.775 569.589 355.775 569.589 355.775C567.123 355.775 564.658 355.775 562.192 355.775L559.726 355.775C559.726 353.314 557.26 355.775 554.795 355.775C552.329 355.775 552.329 355.775 549.863 355.775L547.397 355.775C547.397 353.314 542.466 355.775 540 353.314C540 350.854 542.466 350.854 540 350.854C540 350.854 537.534 350.854 535.069 350.854C532.603 350.854 532.603 350.854 530.137 350.854C530.137 348.394 532.603 348.394 535.069 345.934C532.603 345.934 535.069 343.474 532.603 343.474C530.137 343.474 530.137 348.394 527.671 345.934C530.137 345.934 530.137 348.394 527.671 348.394L527.671 350.854C522.74 348.394 520.274 353.314 515.342 350.854C510.411 350.854 512.877 348.394 512.877 345.934C510.411 348.394 507.945 348.394 507.945 348.394C507.945 345.934 510.411 345.934 510.411 345.934L507.945 345.934C507.945 348.394 507.945 348.394 507.945 350.854L505.479 350.854C505.479 350.854 505.479 348.394 503.014 348.394C503.014 350.854 495.616 345.934 500.548 348.394C498.082 350.854 498.082 345.934 493.151 348.394C498.082 348.394 498.082 348.394 493.151 345.934C493.151 348.394 493.151 350.854 490.685 350.854L490.685 353.314C485.753 350.854 485.753 353.314 483.288 353.314L483.288 350.854C483.288 348.394 480.822 350.854 478.356 350.854C475.89 350.854 473.425 348.394 473.425 350.854C470.959 350.854 468.493 350.854 468.493 348.394L466.027 348.394C463.562 348.394 463.562 348.394 461.096 348.394C458.63 343.474 463.562 348.394 463.562 345.934C461.096 345.934 458.63 345.934 456.164 345.934C453.699 345.934 453.699 348.394 453.699 348.394C448.767 345.934 448.767 348.394 446.301 348.394C443.836 350.854 441.37 353.314 443.836 355.775C438.904 355.775 438.904 358.235 436.438 355.775L433.973 355.775C433.973 358.235 429.041 358.235 433.973 360.695C431.507 360.695 431.507 363.155 429.041 360.695C429.041 363.155 426.575 363.155 426.575 363.155L424.11 363.155C424.11 360.695 421.644 360.695 419.178 360.695C419.178 360.695 419.178 360.695 419.178 358.235C414.247 358.235 416.712 365.615 419.178 363.155C416.712 363.155 414.247 363.155 414.247 365.615C414.247 363.155 411.781 365.615 411.781 365.615C411.781 365.615 414.247 363.155 411.781 363.155C409.315 363.155 411.781 360.695 411.781 360.695L409.315 360.695C406.849 360.695 406.849 360.695 406.849 363.155C409.315 363.155 409.315 363.155 409.315 365.615C406.849 365.615 406.849 365.615 404.384 365.615C401.918 370.536 409.315 368.075 409.315 370.536C406.849 370.536 404.384 370.536 404.384 370.536C401.918 370.536 396.986 370.536 396.986 372.996C394.521 375.456 394.521 370.536 389.589 372.996C389.589 370.536 384.658 372.996 387.123 370.536C387.123 368.075 384.658 368.075 379.726 368.075L382.192 370.536L379.726 370.536C377.26 368.075 374.795 368.075 374.795 365.615L374.795 368.075L372.329 368.075C369.863 368.075 369.863 370.536 367.397 368.075L364.932 368.075L362.466 368.075C362.466 370.536 362.466 368.075 360 368.075C357.534 368.075 357.534 370.536 357.534 368.075C355.069 368.075 352.603 368.075 352.603 365.615L352.603 368.075C352.603 370.536 355.068 368.075 355.068 370.536C355.068 370.536 355.068 370.536 355.068 372.996C352.603 372.996 350.137 372.996 347.671 372.996C345.205 372.996 345.206 372.996 342.74 372.996C342.74 368.075 347.671 370.536 350.137 365.615L347.671 365.615L345.206 365.615C342.74 368.075 340.274 370.536 337.808 370.536C335.343 370.536 332.877 370.536 332.877 368.075C330.411 370.536 327.945 370.536 325.479 372.996C325.479 375.456 318.082 375.456 323.014 380.376C323.014 382.836 320.548 380.376 320.548 382.836C315.616 382.836 313.151 385.297 310.685 387.757C308.219 387.757 305.753 387.757 305.753 387.757C305.753 387.757 305.753 385.297 303.288 385.297C303.288 385.297 303.288 387.757 300.822 387.757C300.822 385.297 298.356 385.297 298.356 387.757C295.89 387.757 298.356 382.836 295.89 382.836C295.89 382.836 295.89 382.836 293.425 382.836C293.425 387.757 288.493 382.836 286.027 382.836C283.562 380.376 278.63 382.836 276.164 382.836C276.164 380.376 278.63 382.836 278.63 380.376C276.164 377.916 276.164 380.376 276.164 382.836L273.699 382.836C271.233 382.836 271.233 382.836 271.233 385.297C266.301 385.297 268.767 382.836 258.904 385.297C256.438 387.757 253.973 385.297 251.507 385.297C251.507 385.297 249.041 382.836 251.507 382.836C246.575 380.376 246.575 385.297 244.11 382.836L241.644 382.836C241.644 382.836 241.644 382.836 241.644 385.297C239.178 385.297 239.178 385.297 236.712 385.297L236.712 382.836C234.247 382.836 234.247 385.297 231.781 382.836C229.315 380.376 231.781 375.456 234.247 375.456C229.315 375.456 234.247 372.996 231.781 372.996C229.315 375.456 226.849 372.996 229.315 370.536C226.849 370.536 226.849 370.536 224.384 370.536L221.918 370.536C219.452 370.536 216.986 368.075 214.521 370.536L212.055 370.536L209.589 370.536C209.589 370.536 209.589 370.536 207.123 370.536C207.123 370.536 204.658 372.996 202.192 372.996C199.726 372.996 199.726 372.996 199.726 372.996C202.192 372.996 207.123 370.536 197.26 370.536L194.795 370.536C189.863 368.075 192.329 372.996 194.795 372.996C194.795 372.996 194.795 372.996 192.329 372.996C192.329 372.996 192.329 372.996 189.863 372.996C184.932 370.536 182.466 372.996 177.534 372.996C177.534 370.536 180 370.536 175.069 370.536L175.069 372.996C172.603 372.996 172.603 372.996 170.137 372.996C167.671 370.536 172.603 370.536 170.137 370.536C167.671 370.536 167.671 372.996 165.206 370.536C162.74 370.536 162.74 370.536 162.74 368.075C160.274 368.075 165.206 365.615 162.74 363.155C160.274 363.155 157.808 365.615 155.343 363.155C147.945 368.075 152.877 370.536 147.945 370.536L145.479 370.536L143.014 370.536L140.548 370.536L140.548 368.075L138.082 368.075L138.082 370.536C135.616 370.536 135.617 370.536 135.617 372.996C135.617 372.996 135.617 370.536 133.151 370.536C130.685 370.536 130.685 370.536 130.685 370.536C130.685 372.996 128.219 370.536 128.219 370.536C123.288 370.536 120.822 368.075 118.356 365.615C115.891 363.155 115.891 360.695 118.356 360.695L118.356 358.235C115.891 358.235 115.89 360.695 113.425 360.695L110.959 360.695L110.959 358.235L113.425 358.235L113.425 355.774C110.959 355.774 108.493 353.314 106.027 353.314C106.027 350.854 106.027 350.854 106.027 350.854L108.493 348.394L108.493 345.934C103.562 348.394 98.6302 348.394 98.6302 345.934L96.1645 345.934L93.6987 343.474C93.6987 343.474 93.6987 343.474 96.1645 343.474L96.1645 341.013C96.1645 341.013 93.6987 341.013 91.2329 341.013C91.2329 341.013 91.233 341.013 88.7672 341.013C88.7672 341.013 86.3015 341.013 86.3015 338.553C83.8357 338.553 86.3015 338.553 86.3015 341.013C83.8357 341.013 83.8357 341.013 83.8357 341.013C83.8357 341.013 83.8357 341.013 83.8357 338.553C81.3699 338.553 81.3699 338.553 81.3699 341.013C81.3699 341.013 81.3699 341.013 78.9042 341.013L76.4384 341.013L71.507 338.553C71.507 338.553 71.507 341.013 69.0412 341.013C69.0412 341.013 69.0412 338.553 71.507 338.553L71.507 336.093C69.0412 336.093 69.0412 338.553 69.0412 341.013L66.5754 341.013L69.0412 338.553C64.1097 336.093 61.6439 343.474 61.6439 338.553L59.1782 338.553C56.7124 333.633 59.1782 336.093 54.2466 338.553C51.7809 338.553 44.3836 338.553 39.4521 338.553C36.9863 341.013 36.9864 336.093 32.0549 336.093C32.0549 336.093 32.0549 336.093 29.5891 336.093C27.1234 336.093 27.1234 336.093 29.5891 336.093C27.1234 336.093 24.6577 336.093 22.1919 336.093C19.7261 336.093 12.3288 333.633 12.3288 336.093C9.86304 338.553 4.93159 333.633 6.70592e-05 336.093L6.10352e-05 405L720 405Z" fill="white"/>
<path fill-rule="evenodd" clip-rule="evenodd" d="M0 284.2V230H441.576C466.906 101.101 557.537 23.0351 600 0V238.867H597.74L590.959 241.133C590.959 243.4 588.699 243.4 588.699 243.4C588.699 245.667 586.438 245.667 584.178 245.667V243.4C584.178 245.667 584.178 245.667 581.918 245.667V243.4C580.788 243.4 580.223 243.967 579.94 244.25C579.837 244.353 579.772 244.418 579.73 244.406C579.658 244.384 579.658 244.122 579.658 243.4H575.137C577.397 245.667 579.658 245.667 581.918 245.667C581.918 246.8 581.353 246.8 580.788 246.8C580.223 246.8 579.658 246.8 579.658 247.933C579.658 245.667 572.877 247.933 572.877 247.933C572.877 246.8 572.877 246.8 572.594 247.083C572.312 247.367 571.747 247.933 570.616 247.933C567.968 245.278 566.096 246.511 564.545 247.533C563.448 248.256 562.512 248.872 561.575 247.933C560.178 246.532 559.645 246.863 558.907 247.32C558.452 247.603 557.918 247.933 557.055 247.933C555.925 246.8 554.794 246.8 553.382 246.8C551.969 246.8 550.274 246.8 548.014 245.667C546.884 245.667 546.884 244.533 546.884 243.4C546.884 242.267 546.884 241.133 545.753 241.133H543.493C543.493 241.133 545.753 241.133 543.493 243.4C542.363 244.533 542.363 245.667 542.363 246.8C542.363 247.933 542.363 249.067 541.233 250.2C540.479 250.2 539.726 250.452 538.973 250.704C537.466 251.207 535.959 251.711 534.452 250.2C535.237 250.2 535.749 249.927 536.084 249.57C535.415 250.2 534.452 250.2 534.452 250.2C534.452 252.467 532.192 252.467 532.192 252.467H523.151C523.151 253.332 523.48 253.868 523.762 254.325C524.218 255.064 524.548 255.599 523.151 257H516.37C514.11 257 514.11 259.267 514.11 259.267C514.11 262.289 512.101 261.281 511.431 260.946C511.307 260.883 511.229 260.844 511.218 260.858C511.199 260.882 511.375 261.058 511.849 261.533C511.096 261.533 510.342 261.281 509.589 261.03C508.082 260.526 506.575 260.022 505.068 261.533V259.267C503.939 259.267 503.374 259.267 503.092 259.549C502.808 259.832 502.808 260.399 502.808 261.533C501.678 262.667 501.113 262.1 500.548 261.533C499.983 260.967 499.418 260.4 498.288 261.533C497.158 261.533 496.027 260.967 494.897 260.4C493.767 259.833 492.637 259.267 491.507 259.267H484.726C483.329 257.866 482.795 258.197 482.058 258.654C481.649 258.907 481.177 259.199 480.46 259.257C480.379 259.263 480.294 259.267 480.205 259.267C479.075 261.533 479.075 263.233 479.075 264.65C479.075 266.067 479.075 267.2 477.945 268.333C476.438 268.333 474.932 268.081 473.425 267.83C470.411 267.326 467.397 266.822 464.384 268.333C464.384 269.055 464.384 269.317 464.311 269.339C464.269 269.352 464.204 269.286 464.101 269.183C463.819 268.9 463.253 268.333 462.123 268.333C459.749 267.143 457.375 267.828 455.328 268.419C453.478 268.953 451.895 269.41 450.822 268.333C448.562 266.067 448.562 268.333 448.562 270.6C445.724 272.023 444.668 270.766 443.715 269.633C443.15 268.962 442.622 268.333 441.781 268.333H439.521C439.521 267.199 439.521 266.632 439.237 266.349C438.954 266.067 438.389 266.067 437.26 266.067V268.333L416.918 262.213V263.8C415.789 263.8 415.224 263.8 414.941 263.517C414.658 263.234 414.658 262.668 414.658 261.533H412.397L414.658 263.8H407.877C405.616 263.8 403.356 263.8 403.356 266.067H401.096V263.8C399.966 263.8 399.966 264.367 399.966 264.65C399.966 264.73 399.966 264.788 399.94 264.803C399.875 264.843 399.646 264.613 398.836 263.8H396.575C394.315 259.267 392.055 259.267 392.055 259.267L385.274 257C385.274 257 383.014 254.733 380.753 254.733C379.623 255.867 379.058 257 378.493 258.133C377.928 259.267 377.363 260.4 376.233 261.533C373.973 261.533 373.973 259.267 373.973 257C371.712 254.733 371.712 259.267 371.712 259.267C371.712 259.988 371.712 260.25 371.639 260.273C371.598 260.285 371.532 260.22 371.43 260.117C371.147 259.833 370.582 259.267 369.452 259.267L367.192 257H362.671V254.733H358.151C357.021 254.733 356.455 255.3 355.89 255.867C355.325 256.433 354.76 257 353.63 257C353.63 255.867 353.065 255.3 352.5 254.733C351.935 254.167 351.37 253.6 351.37 252.467H349.11C348.246 253.332 347.383 253.868 346.646 254.325C345.452 255.064 344.589 255.599 344.589 257C344.589 257 344.589 259.267 342.329 259.267H337.808C336.678 259.267 336.678 259.833 336.678 260.4C336.678 260.967 336.678 261.533 335.548 261.533C334.612 262.472 334.839 261.467 335.105 260.288C335.481 258.622 335.936 256.611 333.288 259.267V261.533C331.027 261.533 330.462 262.667 329.897 263.8C329.332 264.933 328.767 266.067 326.507 266.067C325.11 264.666 324.576 264.996 323.839 265.454C323.383 265.736 322.85 266.067 321.986 266.067C321.986 266.067 319.726 263.8 319.726 266.067C317.466 266.067 317.466 268.333 317.466 268.333L312.945 272.867V275.133C312.945 273.732 312.082 274.063 310.889 274.52C310.151 274.803 309.288 275.133 308.425 275.133C308.425 272.867 306.164 277.4 306.164 277.4C305.034 277.4 305.034 277.967 305.034 278.533C305.034 279.1 305.034 279.667 303.904 279.667C301.256 279.667 300.935 280.444 300.669 281.089C300.48 281.544 300.32 281.933 299.384 281.933H292.603C294.863 281.933 294.863 284.2 294.863 284.2H279.041L274.521 281.933H270V279.667C268.7 280.971 268.147 281.525 267.482 281.76C266.992 281.933 266.439 281.933 265.479 281.933V279.667H263.219C262.356 280.532 261.492 281.068 260.755 281.525C259.562 282.264 258.699 282.799 258.699 284.2C258.699 286.687 258.018 286.445 257.031 286.095C256.219 285.806 255.198 285.443 254.178 286.467V284.2C251.918 286.467 249.658 286.467 247.397 286.467C247.397 284.2 245.137 284.2 245.137 284.2C244.201 284.2 243.652 283.811 243.01 283.355C242.101 282.711 241.004 281.933 238.356 281.933V286.467C237.365 286.467 237.678 285.595 237.96 284.807C238.322 283.799 238.634 282.927 236.096 284.2V282.89C235.672 282.783 234.966 282.5 233.836 281.933C232.439 283.334 231.905 283.004 231.168 282.546C230.712 282.264 230.178 281.933 229.315 281.933C229.315 281.068 229.645 280.202 229.926 279.462C230.382 278.266 230.712 277.4 229.315 277.4C229.315 279.667 227.055 279.667 227.055 279.667C224.794 279.667 224.229 279.1 223.664 278.533C223.099 277.967 222.534 277.4 220.274 277.4C220.274 275.133 222.534 275.133 222.534 275.133H215.753V272.867H213.493C213.493 275.133 211.233 272.867 211.233 272.867H206.712C205.205 272.867 204.703 270.852 204.536 270.18C204.502 270.045 204.482 269.964 204.47 269.965C204.452 269.967 204.452 270.149 204.452 270.6V275.133H202.192C201.062 275.133 200.497 274.567 199.932 274C199.368 273.435 198.804 272.869 197.679 272.867C197.978 272.867 198.197 272.908 198.358 272.978C197.974 272.867 197.671 272.867 197.671 272.867V270.6H195.411L190.89 275.133C190.89 275.133 193.151 272.867 190.89 272.867C190.89 271.928 190.115 272.544 189.206 273.267C187.921 274.289 186.37 275.522 186.37 272.867C185.24 271.733 185.24 272.3 185.24 273.433C185.24 274.567 185.24 276.267 184.11 277.4C184.11 277.4 181.849 275.133 184.11 275.133C184.11 275.133 182.545 275.133 182.019 273.828C181.964 273.885 181.907 273.943 181.849 274C181.284 274.567 180.719 275.133 181.849 275.133C180.626 276.36 180.064 274.93 179.448 273.36C178.927 272.03 178.365 270.6 177.329 270.6C175.068 270.6 175.068 270.6 175.068 272.867C172.808 272.867 170.548 270.6 170.548 268.333C168.288 268.333 166.027 268.333 166.027 270.6C165.274 269.844 164.772 268.837 164.353 267.998C163.516 266.319 163.014 265.311 161.507 268.333H159.247C159.247 268.333 156.986 266.067 150.205 268.333C150.205 268.333 145.685 266.067 143.425 263.8H141.164C140.301 263.8 139.438 263.469 138.7 263.187C137.507 262.73 136.644 262.399 136.644 263.8C135.514 263.8 135.514 263.233 135.514 262.95C135.514 262.87 135.514 262.812 135.488 262.797C135.423 262.757 135.194 262.987 134.384 263.8C134.384 261.055 132.726 262.466 130.916 264.005C129.738 265.009 128.494 266.067 127.603 266.067V268.333C126.473 268.333 125.908 267.767 125.342 267.2C124.777 266.633 124.212 266.067 123.082 266.067C120.822 266.067 120.822 266.067 120.822 263.8H118.562V261.533C116.301 259.267 116.301 263.8 116.301 263.8H109.521C109.521 263.078 109.521 262.816 109.448 262.794C109.406 262.781 109.341 262.847 109.238 262.95C108.955 263.233 108.39 263.8 107.26 263.8C107.26 262.667 106.695 262.1 106.13 261.533C105.565 260.967 105 260.4 105 259.267V261.533C103.721 260.251 102.443 261.145 101.573 261.753C100.906 262.22 100.479 262.518 100.479 261.533H98.2192C98.2192 261.533 98.2192 263.8 95.9589 266.067C95.9589 266.992 95.5822 266.784 94.8288 266.368C93.7367 265.765 91.8531 264.725 89.1781 266.067C86.9178 266.067 84.6575 266.067 84.6575 268.333V266.067C82.3973 266.067 80.137 266.067 80.137 268.333H77.8767C77.8767 266.067 75.6164 270.6 75.6164 270.6C75.6164 270.6 75.6164 268.333 73.3562 266.067H68.8356C68.8356 263.8 69.9658 262.667 70.8134 261.817C71.6609 260.967 72.226 260.4 71.0959 259.267C71.0959 260.4 70.5308 260.967 69.9658 261.533C69.4007 262.1 68.8356 262.667 68.8356 263.8C67.8669 262.829 66.8982 263.106 65.9296 263.384C64.638 263.754 63.3464 264.124 62.0548 261.533C61.1914 262.399 60.6579 263.265 60.2021 264.004C59.4647 265.201 58.9312 266.067 57.5342 266.067H55.274C54.1449 266.067 53.5798 266.067 53.297 266.349C53.0137 266.632 53.0137 267.199 53.0137 268.333C50.7534 268.333 48.4931 268.333 50.7534 266.067C49.6233 264.933 49.0582 265.5 48.4932 266.067C47.9281 266.633 47.363 267.2 46.2329 266.067C45.1027 266.067 44.5377 266.633 43.9726 267.2C43.4075 267.767 42.8425 268.333 41.7123 268.333C40.3154 269.734 40.6452 270.269 41.1009 271.009C41.3826 271.466 41.7123 272.001 41.7123 272.867H39.4521C38.3219 272.867 37.1918 273.433 36.0616 274C34.9315 274.567 33.8014 275.133 32.6712 275.133C31.8079 275.133 30.9445 275.464 30.2071 275.746C29.014 276.203 28.1507 276.534 28.1507 275.133C27.0206 275.133 26.4555 276.267 25.8904 277.4C25.3253 278.533 24.7603 279.667 23.6301 279.667V277.4C22.7668 277.4 22.2332 277.731 21.7775 278.013C21.0401 278.47 20.5065 278.801 19.1096 277.4H16.8493C16.8493 279.667 14.589 279.667 14.589 279.667C13.4589 279.667 12.8938 279.1 12.3288 278.533C11.7637 277.967 11.1986 277.4 10.0685 277.4C8.93835 279.667 7.24315 280.233 5.54794 280.8C3.85274 281.367 2.15754 281.933 1.0274 284.2H0ZM482.466 257C482.466 257.787 482.193 258.301 481.837 258.637C482.466 257.966 482.466 257 482.466 257Z" fill="white"/>
<path d="M198.358 272.978C199.023 273.17 199.931 273.696 199.931 275.133C198.801 275.133 198.801 274.567 198.801 274C198.801 273.585 198.801 273.17 198.358 272.978Z" fill="white"/>
<path d="M581.918 245.667C581.918 246.8 583.048 247.367 583.613 247.65C583.806 247.747 583.933 247.811 583.927 247.853C583.914 247.933 583.405 247.933 581.918 247.933V245.667Z" fill="white"/>
</svg>
