<svg width="780" height="405" viewBox="0 0 780 405" fill="none" xmlns="http://www.w3.org/2000/svg">
<path fill-rule="evenodd" clip-rule="evenodd" d="M660 230V0C617.537 23.0351 526.906 101.101 501.576 230H0V288.733C1.12907 288.733 1.69414 288.733 1.97694 288.451C2.26027 288.168 2.26027 287.601 2.26027 286.467C8.28767 287.978 12.3059 287.474 16.3242 286.97C18.3333 286.719 20.3425 286.467 22.6027 286.467C23.7329 286.467 24.2979 285.9 24.5805 285.617C24.6831 285.514 24.7485 285.448 24.7901 285.461C24.863 285.483 24.863 285.745 24.863 286.467C27.5111 286.467 30.9348 285.689 33.771 285.045C35.7766 284.589 37.4884 284.2 38.4247 284.2H40.6849C42.9452 281.933 45.2055 281.933 47.4658 284.2C47.4658 286.467 47.4658 288.733 49.726 291V286.467C49.726 284.2 51.9863 284.2 51.9863 284.2C53.1164 284.2 53.6815 283.633 53.964 283.35C54.2466 283.067 54.2466 283.067 54.2466 284.2H61.0274C62.1575 281.933 63.8527 281.367 65.5479 280.8C67.2431 280.233 68.9384 279.667 70.0685 277.4C71.1986 277.4 71.7637 277.967 72.3288 278.533C72.8938 279.1 73.4589 279.667 74.589 279.667C74.589 279.667 76.8493 279.667 76.8493 277.4H79.1096C80.5065 278.801 81.0401 278.47 81.7775 278.013C82.2332 277.731 82.7668 277.4 83.6301 277.4V279.667C84.7603 279.667 85.3253 278.533 85.8904 277.4C86.4555 276.267 87.0206 275.133 88.1507 275.133C88.1507 276.534 89.014 276.203 90.2071 275.746C90.9445 275.464 91.8079 275.133 92.6712 275.133C93.8014 275.133 94.9315 274.567 96.0616 274C97.1918 273.433 98.3219 272.867 99.4521 272.867H101.712C101.712 272.001 101.383 271.466 101.101 271.009C100.645 270.269 100.315 269.734 101.712 268.333C102.842 268.333 103.408 267.767 103.973 267.2C104.538 266.633 105.103 266.067 106.233 266.067C107.363 267.2 107.928 266.633 108.493 266.067C109.058 265.5 109.623 264.933 110.753 266.067C108.493 268.333 110.753 268.333 113.014 268.333C113.014 267.199 113.014 266.632 113.297 266.349C113.58 266.067 114.145 266.067 115.274 266.067H117.534C118.931 266.067 119.465 265.201 120.202 264.004C120.658 263.265 121.191 262.399 122.055 261.533C123.346 264.124 124.638 263.754 125.93 263.384C126.898 263.106 127.867 262.829 128.836 263.8C128.836 262.667 129.401 262.1 129.966 261.533C130.531 260.967 131.096 260.4 131.096 259.267C132.226 260.4 131.661 260.967 130.813 261.817C129.966 262.667 128.836 263.8 128.836 266.067H131.096H133.356C135.616 268.333 135.616 270.6 135.616 270.6C135.616 270.6 137.877 266.067 137.877 268.333H140.137C140.137 266.067 142.397 266.067 144.658 266.067V268.333C144.658 266.067 146.918 266.067 149.178 266.067C151.853 264.725 153.737 265.765 154.829 266.368C155.582 266.784 155.959 266.992 155.959 266.067C158.219 263.8 158.219 261.533 158.219 261.533H160.479C160.479 262.518 160.906 262.22 161.573 261.753C162.443 261.145 163.721 260.251 165 261.533V259.267C165 260.4 165.565 260.967 166.13 261.533C166.695 262.1 167.26 262.667 167.26 263.8C168.39 263.8 168.955 263.233 169.238 262.95C169.341 262.847 169.406 262.781 169.448 262.794C169.521 262.816 169.521 263.078 169.521 263.8H176.301C176.301 263.8 176.301 259.267 178.562 261.533V263.8H180.822C180.822 266.067 180.822 266.067 183.082 266.067C184.212 266.067 184.777 266.633 185.342 267.2C185.908 267.767 186.473 268.333 187.603 268.333V266.067C188.494 266.067 189.738 265.009 190.916 264.005C192.726 262.466 194.384 261.055 194.384 263.8L194.384 263.8C195.194 262.987 195.423 262.757 195.488 262.797C195.514 262.812 195.514 262.87 195.514 262.95C195.514 263.233 195.514 263.8 196.644 263.8C196.644 262.399 197.507 262.73 198.7 263.187C199.438 263.469 200.301 263.8 201.164 263.8H203.425C205.685 266.067 210.205 268.333 210.205 268.333C216.986 266.067 219.247 268.333 219.247 268.333H221.507C223.014 265.311 223.516 266.319 224.353 267.998C224.772 268.837 225.274 269.844 226.027 270.6C226.027 268.333 228.288 268.333 230.548 268.333C230.548 270.6 232.808 272.867 235.068 272.867C235.068 270.6 235.068 270.6 237.329 270.6C238.365 270.6 238.927 272.03 239.448 273.36C240.064 274.93 240.626 276.36 241.849 275.133C240.719 275.133 241.284 274.567 241.849 274C241.907 273.943 241.964 273.885 242.019 273.828C242.545 275.133 244.11 275.133 244.11 275.133C241.849 275.133 244.11 277.4 244.11 277.4C245.24 276.267 245.24 274.567 245.24 273.433C245.24 272.3 245.24 271.733 246.37 272.867C246.37 275.522 247.921 274.289 249.206 273.267C250.115 272.544 250.89 271.928 250.89 272.867C253.151 272.867 250.89 275.133 250.89 275.133L255.411 270.6H257.671V272.867C257.671 272.867 257.974 272.867 258.358 272.978C258.801 273.17 258.801 273.585 258.801 274C258.801 274.567 258.801 275.133 259.931 275.133C259.931 273.696 259.023 273.17 258.358 272.978C258.198 272.908 257.979 272.868 257.681 272.867C258.805 272.87 259.368 273.435 259.932 274C260.497 274.567 261.062 275.133 262.192 275.133H264.452V270.6C264.452 270.149 264.452 269.967 264.47 269.965C264.482 269.964 264.502 270.045 264.536 270.18C264.703 270.852 265.206 272.867 266.712 272.867H271.233C271.233 272.867 273.493 275.133 273.493 272.867H275.753V275.133H280.274H282.534C282.534 275.133 280.274 275.133 280.274 277.4C282.534 277.4 283.099 277.967 283.664 278.533C284.229 279.1 284.794 279.667 287.055 279.667C287.055 279.667 289.315 279.667 289.315 277.4C290.712 277.4 290.382 278.266 289.926 279.462C289.645 280.202 289.315 281.068 289.315 281.933C290.178 281.933 290.712 282.264 291.168 282.546C291.905 283.004 292.439 283.334 293.836 281.933C294.966 282.5 295.672 282.783 296.096 282.89V284.2C298.634 282.927 298.322 283.799 297.96 284.807C297.678 285.595 297.365 286.467 298.356 286.467V284.2V281.933C301.004 281.933 302.101 282.711 303.01 283.355C303.652 283.811 304.201 284.2 305.137 284.2C305.137 284.2 307.397 284.2 307.397 286.467C309.658 286.467 311.918 286.467 314.178 284.2V286.467C315.198 285.443 316.219 285.806 317.031 286.095C318.018 286.445 318.699 286.687 318.699 284.2C318.699 282.799 319.562 282.264 320.755 281.525C321.492 281.068 322.356 280.532 323.219 279.667H325.479V281.933C326.439 281.933 326.992 281.933 327.482 281.76C328.147 281.525 328.7 280.971 330 279.667V281.933H332.26H334.521L339.041 284.2H341.301H343.562H345.822H348.082H354.863C354.863 284.2 354.863 281.933 352.603 281.933H354.863H359.384C360.32 281.933 360.48 281.544 360.669 281.089C360.935 280.444 361.256 279.667 363.904 279.667C365.034 279.667 365.034 279.1 365.034 278.533C365.034 277.967 365.034 277.4 366.164 277.4C366.164 277.4 368.425 272.867 368.425 275.133C369.288 275.133 370.151 274.803 370.889 274.52C372.082 274.063 372.945 273.732 372.945 275.133V272.867L377.466 268.333C377.466 268.333 377.466 266.067 379.726 266.067C379.726 263.8 381.986 266.067 381.986 266.067C382.85 266.067 383.383 265.736 383.839 265.454C384.576 264.996 385.11 264.666 386.507 266.067C388.767 266.067 389.332 264.933 389.897 263.8C390.462 262.667 391.027 261.533 393.288 261.533V259.267C395.936 256.611 395.481 258.622 395.105 260.288C394.839 261.467 394.612 262.472 395.548 261.533C396.678 261.533 396.678 260.967 396.678 260.4C396.678 259.833 396.678 259.267 397.808 259.267H400.069H402.329C404.589 259.267 404.589 257 404.589 257C404.589 255.599 405.452 255.064 406.646 254.325C407.383 253.868 408.246 253.332 409.11 252.467H411.37C411.37 253.6 411.935 254.167 412.5 254.733C413.065 255.3 413.63 255.867 413.63 257C414.76 257 415.325 256.433 415.89 255.867C416.455 255.3 417.021 254.733 418.151 254.733H420.411H422.671V257H424.931H427.192L429.452 259.267C430.582 259.267 431.147 259.833 431.43 260.117C431.532 260.22 431.598 260.285 431.639 260.273C431.712 260.25 431.712 259.988 431.712 259.267C431.712 259.267 431.712 254.733 433.973 257C433.973 259.267 433.973 261.533 436.233 261.533C437.363 260.4 437.928 259.267 438.493 258.133C439.058 257 439.623 255.867 440.753 254.733C443.014 254.733 445.274 257 445.274 257L452.055 259.267C452.055 259.267 454.315 259.267 456.575 263.8H458.836C459.646 264.613 459.875 264.843 459.94 264.803C459.966 264.788 459.966 264.73 459.966 264.65C459.966 264.367 459.966 263.8 461.096 263.8V266.067H463.356C463.356 263.8 465.616 263.8 467.877 263.8H470.137H474.658L472.397 261.533H474.658C474.658 262.668 474.658 263.234 474.941 263.517C475.224 263.8 475.789 263.8 476.918 263.8V262.213L497.26 268.333V266.067C498.389 266.067 498.954 266.067 499.237 266.349C499.521 266.632 499.521 267.199 499.521 268.333H501.781C502.622 268.333 503.15 268.962 503.715 269.633C504.668 270.766 505.724 272.023 508.562 270.6C508.562 268.333 508.562 266.067 510.822 268.333C511.895 269.41 513.478 268.953 515.328 268.419C517.375 267.828 519.749 267.143 522.123 268.333C523.253 268.333 523.818 268.9 524.101 269.183C524.204 269.286 524.269 269.352 524.311 269.339C524.384 269.317 524.384 269.055 524.384 268.333C527.397 266.822 530.411 267.326 533.425 267.83C534.932 268.081 536.438 268.333 537.945 268.333C539.075 267.2 539.075 266.067 539.075 264.65C539.075 263.233 539.075 261.533 540.205 259.267C540.273 259.267 540.339 259.265 540.403 259.261C540.422 259.259 540.441 259.258 540.46 259.257C541.177 259.199 541.649 258.907 542.058 258.654C542.795 258.197 543.329 257.866 544.726 259.267H546.986H549.247H551.507C552.637 259.267 553.767 259.833 554.897 260.4C556.027 260.967 557.158 261.533 558.288 261.533C559.418 260.4 559.983 260.967 560.548 261.533C561.113 262.1 561.678 262.667 562.808 261.533C562.808 260.399 562.808 259.832 563.092 259.549C563.374 259.267 563.939 259.267 565.068 259.267V261.533C566.575 260.022 568.082 260.526 569.589 261.03C570.342 261.281 571.096 261.533 571.849 261.533C571.375 261.058 571.199 260.882 571.218 260.858C571.229 260.844 571.307 260.883 571.431 260.946C572.101 261.281 574.11 262.289 574.11 259.267C574.11 259.267 574.11 257 576.37 257H583.151C584.548 255.599 584.218 255.064 583.762 254.325C583.48 253.868 583.151 253.332 583.151 252.467H587.671H592.192C592.192 252.467 594.452 252.467 594.452 250.2C595.959 251.711 597.466 251.207 598.973 250.704C599.726 250.452 600.479 250.2 601.233 250.2C602.363 249.067 602.363 247.933 602.363 246.8C602.363 245.667 602.363 244.533 603.493 243.4C605.753 241.133 603.493 241.133 603.493 241.133H605.753C606.884 241.133 606.884 242.267 606.884 243.4C606.884 244.533 606.884 245.667 608.014 245.667C610.274 246.8 611.969 246.8 613.382 246.8C614.794 246.8 615.925 246.8 617.055 247.933C617.918 247.933 618.452 247.603 618.907 247.32C619.645 246.863 620.178 246.532 621.575 247.933C622.512 248.872 623.448 248.256 624.545 247.533C626.096 246.511 627.968 245.278 630.616 247.933C631.747 247.933 632.312 247.367 632.594 247.083C632.877 246.8 632.877 246.8 632.877 247.933C632.877 247.933 639.658 245.667 639.658 247.933C639.658 246.8 640.223 246.8 640.788 246.8C641.353 246.8 641.918 246.8 641.918 245.667V247.933C643.405 247.933 643.914 247.933 643.927 247.853C643.933 247.811 643.806 247.747 643.613 247.65C643.048 247.367 641.918 246.8 641.918 245.667C644.178 245.667 644.178 245.667 644.178 243.4V245.667C646.438 245.667 648.699 245.667 648.699 243.4C648.699 243.4 650.959 243.4 650.959 241.133L657.74 238.867H660V233V230ZM641.918 245.667C639.658 245.667 637.397 245.667 635.137 243.4H637.397H639.658C639.658 244.122 639.658 244.384 639.73 244.406C639.772 244.418 639.837 244.353 639.94 244.25C640.223 243.967 640.788 243.4 641.918 243.4V245.667ZM596.084 249.57C595.415 250.2 594.452 250.2 594.452 250.2C595.237 250.2 595.749 249.927 596.084 249.57ZM542.466 257C542.466 257.787 542.193 258.301 541.837 258.637C542.466 257.966 542.466 257 542.466 257ZM780 405V358.235C777.534 358.235 775.068 360.695 775.068 360.695C770.137 360.695 767.671 360.695 765.206 358.235H762.74C762.74 358.235 760.274 355.775 762.74 355.775C762.74 354.545 762.74 353.93 762.432 353.623C762.124 353.314 761.508 353.314 760.274 353.314C760.274 356.916 756.31 356.563 751.283 356.115C749.444 355.951 747.462 355.775 745.479 355.775H738.082H730.685C730.685 355.775 730.685 358.235 728.219 358.235C724.932 356.595 721.644 357.141 718.356 357.688C716.712 357.961 715.068 358.235 713.425 358.235C711.781 356.595 710.137 357.141 708.493 357.688C707.671 357.961 706.849 358.235 706.027 358.235V355.775C704.795 355.775 704.178 356.39 703.562 357.005C702.945 357.62 702.329 358.235 701.096 358.235C701.096 358.235 698.63 358.235 698.63 360.695C698.63 360.695 696.164 360.695 698.63 363.155V365.615H696.164C694.281 366.555 692.757 367.495 691.455 368.297C689.349 369.596 687.825 370.536 686.301 370.536H683.836H681.37H678.904C678.904 367.653 676.366 366.459 674.263 365.47C672.776 364.771 671.507 364.174 671.507 363.155C666.575 363.155 654.247 363.155 654.247 355.775C653.305 355.775 652.723 355.416 652.226 355.109C651.421 354.613 650.839 354.254 649.315 355.775C649.315 358.235 651.781 358.235 651.781 358.235H646.849V355.775C646.849 354.254 645.907 354.613 644.606 355.109C643.802 355.416 642.86 355.775 641.918 355.775H639.452H634.521H629.589H622.192H619.726C619.726 354.254 618.784 354.613 617.483 355.109C616.678 355.416 615.736 355.775 614.795 355.775H609.863H607.397C607.397 354.544 606.164 354.544 604.623 354.544C603.082 354.544 601.233 354.544 600 353.314C600 352.084 600.616 351.469 600.925 351.162C601.233 350.854 601.233 350.854 600 350.854H595.068H590.137C590.137 349.334 591.079 348.753 592.38 347.95C593.185 347.454 594.127 346.874 595.068 345.934C593.836 345.934 593.836 345.319 593.836 344.704C593.836 344.089 593.836 343.474 592.603 343.474C591.522 343.474 590.915 344.42 590.366 345.274C590.017 345.819 589.691 346.326 589.282 346.529C588.998 346.186 588.461 345.934 587.671 345.934C588.368 346.629 588.867 346.735 589.282 346.529C589.884 347.257 589.347 348.394 587.671 348.394V350.854C585.206 349.624 583.356 350.239 581.507 350.854C579.658 351.469 577.808 352.084 575.342 350.854C571.732 350.854 572.086 349.536 572.535 347.864L572.536 347.864C572.7 347.252 572.877 346.593 572.877 345.934C570.411 348.394 567.945 348.394 567.945 348.394C567.945 345.934 570.411 345.934 570.411 345.934H567.945V348.394V350.854H565.479C565.479 350.854 565.479 348.394 563.014 348.394C563.014 349.494 561.536 349.119 560.342 348.588C560.409 348.529 560.477 348.465 560.548 348.394C557.821 347.033 558.864 347.93 560.342 348.588C559.343 349.466 558.758 349.066 558.004 348.55C557.625 348.291 557.204 348.002 556.667 347.832C556.24 347.475 555.068 346.891 553.151 345.934C553.151 348.394 553.151 350.854 550.685 350.854V353.314C547.397 351.674 546.301 352.221 545.206 352.768C544.658 353.041 544.11 353.314 543.288 353.314V350.854C543.288 349.334 542.346 349.693 541.044 350.189C540.24 350.495 539.298 350.854 538.356 350.854C537.414 350.854 536.473 350.495 535.668 350.189C534.367 349.693 533.425 349.334 533.425 350.854C530.959 350.854 528.493 350.854 528.493 348.394H526.027H521.096C519.711 345.631 520.659 345.971 521.757 346.365C522.614 346.672 523.562 347.012 523.562 345.934H516.164C513.699 345.934 513.699 348.394 513.699 348.394C510.411 346.754 509.315 347.301 508.219 347.847C507.671 348.121 507.123 348.394 506.301 348.394C503.836 350.854 501.37 353.314 503.836 355.775C501.751 355.775 500.548 356.214 499.667 356.536C498.464 356.975 497.862 357.195 496.438 355.775H493.973C493.973 356.714 493.253 357.295 492.639 357.791C491.644 358.594 490.925 359.174 493.973 360.695C493.031 360.695 492.449 361.054 491.952 361.36C491.147 361.856 490.565 362.215 489.041 360.695C489.041 363.155 486.575 363.155 486.575 363.155H484.11C484.11 360.695 481.644 360.695 479.178 360.695V358.235C475.7 358.235 475.901 361.906 477.187 363.207C475.539 363.343 474.247 363.834 474.247 365.615C474.247 363.155 471.781 365.615 471.781 365.615C471.781 365.615 474.247 363.155 471.781 363.155C469.315 363.155 471.781 360.695 471.781 360.695H469.315C468.081 360.695 467.465 360.695 467.157 361.003C466.849 361.311 466.849 361.926 466.849 363.155C468.083 363.155 468.7 363.155 469.008 363.463C469.315 363.771 469.315 364.386 469.315 365.615H464.384C462.917 368.542 464.94 368.857 466.82 369.15C468.101 369.35 469.315 369.539 469.315 370.536H464.384C461.918 370.536 456.986 370.536 456.986 372.996C455.858 374.121 455.246 373.702 454.442 373.152C453.489 372.499 452.265 371.661 449.589 372.996C449.589 371.766 448.356 371.766 447.432 371.766C446.507 371.766 445.89 371.766 447.123 370.536C447.123 368.075 444.658 368.075 439.726 368.075L442.192 370.536H439.726C438.784 369.596 437.842 369.015 437.038 368.519C435.736 367.716 434.795 367.136 434.795 365.615V368.075H432.329C431.387 368.075 430.805 368.434 430.308 368.741C429.503 369.237 428.921 369.596 427.397 368.075H424.932H422.466C422.466 368.858 422.466 369.143 422.386 369.167C422.341 369.181 422.27 369.11 422.158 368.998C421.849 368.69 421.233 368.075 420 368.075C418.767 368.075 418.151 368.69 417.842 368.998C417.73 369.11 417.659 369.181 417.614 369.167C417.534 369.143 417.534 368.858 417.534 368.075C415.069 368.075 412.603 368.075 412.603 365.615V368.075C412.603 369.305 413.219 369.305 413.836 369.305C414.452 369.305 415.068 369.305 415.068 370.536V372.996H407.671H402.74C402.74 370.4 404.112 369.858 405.771 369.204C407.257 368.617 408.972 367.94 410.137 365.615H407.671H405.206C402.74 368.075 400.274 370.536 397.808 370.536C395.342 370.536 392.877 370.536 392.877 368.075C391.644 369.305 390.411 369.921 389.178 370.536C387.945 371.151 386.712 371.766 385.479 372.996C385.479 373.879 384.527 374.445 383.533 375.035C381.758 376.09 379.852 377.222 383.014 380.376C383.014 381.606 382.397 381.606 381.781 381.606C381.164 381.606 380.548 381.606 380.548 382.836C375.616 382.836 373.151 385.297 370.685 387.757H365.753C365.753 387.757 365.753 385.297 363.288 385.297C363.288 385.297 363.288 387.757 360.822 387.757C360.822 385.297 358.356 385.297 358.356 387.757C357.123 387.757 357.123 386.527 357.123 385.297C357.123 384.067 357.123 382.836 355.89 382.836H353.425C353.425 386.117 351.233 385.023 349.041 383.93C347.945 383.383 346.849 382.836 346.027 382.836C344.308 381.121 341.39 381.798 338.945 382.365C337.884 382.611 336.911 382.836 336.164 382.836C336.164 381.606 336.781 381.606 337.397 381.606C338.014 381.606 338.63 381.606 338.63 380.376C336.164 377.916 336.164 380.376 336.164 382.836H333.699C332.465 382.836 331.848 382.836 331.54 383.145C331.233 383.452 331.233 384.067 331.233 385.297C329.486 385.297 328.667 384.988 327.9 384.699C326.501 384.171 325.273 383.708 318.904 385.297C317.26 386.937 315.616 386.39 313.973 385.843C313.151 385.57 312.329 385.297 311.507 385.297C311.507 385.297 309.041 382.836 311.507 382.836C308.831 381.502 307.607 382.34 306.654 382.992C305.85 383.543 305.238 383.962 304.11 382.836H301.644V385.297H296.712V382.836C295.771 382.836 295.188 383.195 294.691 383.502C293.887 383.998 293.305 384.357 291.781 382.836C289.315 380.376 291.781 375.456 294.247 375.456C291.358 375.456 291.853 374.612 292.264 373.912C292.554 373.418 292.802 372.996 291.781 372.996C289.315 375.456 286.849 372.996 289.315 370.536H284.384H281.918C281.096 370.536 280.274 370.262 279.452 369.989C277.808 369.442 276.164 368.895 274.521 370.536H272.055H269.589H267.123C267.123 370.536 264.658 372.996 262.192 372.996H259.726C262.192 372.996 267.123 370.536 257.26 370.536H254.795C249.863 368.075 252.329 372.996 254.795 372.996H252.329H249.863C246.679 371.407 244.522 371.87 242.066 372.398L242.066 372.398C240.719 372.687 239.281 372.996 237.534 372.996C237.534 372.176 237.808 371.629 237.991 371.264C238.104 371.04 238.182 370.884 238.139 370.776C238.043 370.536 237.342 370.536 235.069 370.536V372.996H230.137C228.493 371.356 230.137 370.809 230.685 370.627C230.786 370.593 230.85 370.572 230.849 370.558C230.846 370.536 230.654 370.536 230.137 370.536C229.195 370.536 228.613 370.895 228.116 371.201C227.312 371.697 226.729 372.056 225.206 370.536C222.74 370.536 222.74 370.536 222.74 368.075C221.669 368.075 221.993 367.611 222.501 366.885C223.162 365.939 224.135 364.547 222.74 363.155C221.918 363.155 221.096 363.428 220.274 363.702C218.63 364.248 216.986 364.795 215.343 363.155C211.432 365.756 210.967 367.669 210.669 368.895C210.403 369.989 210.27 370.536 207.945 370.536H205.479H203.014H200.548V368.075H198.082V370.536C196.848 370.536 196.232 370.536 195.924 370.844C195.617 371.152 195.617 371.767 195.617 372.996C195.617 372.996 195.617 370.536 193.151 370.536H190.685C190.685 372.996 188.219 370.536 188.219 370.536C183.288 370.536 180.822 368.075 178.356 365.615C175.891 363.155 175.891 360.695 178.356 360.695V358.235C177.123 358.235 176.507 358.85 175.89 359.465C175.274 360.08 174.658 360.695 173.425 360.695H170.959V358.235H173.425V355.774C172.192 355.774 170.959 355.159 169.726 354.544C168.493 353.929 167.26 353.314 166.027 353.314V350.854L168.493 348.394V345.934C163.562 348.394 158.63 348.394 158.63 345.934H156.164L153.699 343.474H156.164V341.013H151.233H148.767C148.767 341.013 146.301 341.013 146.301 338.553C145.069 338.553 145.069 338.553 145.377 338.861C145.685 339.168 146.301 339.783 146.301 341.013H143.836V338.553C141.37 338.553 141.37 338.553 141.37 341.013H138.904H136.438L131.507 338.553V336.093C129.041 336.093 129.041 338.553 129.041 341.013H126.575L129.041 338.553C126.434 337.253 124.517 338.702 123.288 339.631C122.192 340.459 121.644 340.873 121.644 338.553H119.178C118.713 337.625 118.424 336.96 118.227 336.508C117.986 335.954 117.883 335.719 117.769 335.713C117.684 335.708 117.593 335.827 117.434 336.033C117.05 336.532 116.273 337.543 114.247 338.553H99.4521C98.2192 339.783 97.6028 339.168 96.6781 338.246C95.7535 337.323 94.5206 336.093 92.0549 336.093H89.5891H82.1919C81.4453 336.093 80.2467 335.868 78.9381 335.621C75.9248 335.054 72.3288 334.378 72.3288 336.093C71.158 337.261 69.4314 336.765 67.4128 336.186C65.18 335.545 62.59 334.801 60.0001 336.093L60.0001 405L780 405ZM129.041 341.013C131.507 341.013 131.507 338.553 131.507 338.553C129.041 338.553 129.041 341.013 129.041 341.013Z" fill="white"/>
</svg>
