<svg width="720" height="176" viewBox="0 0 720 176" fill="none" xmlns="http://www.w3.org/2000/svg">
<path d="M720 176L720 129.235C717.534 129.235 715.068 131.695 715.068 131.695C710.137 131.695 707.671 131.695 705.205 129.235L702.74 129.235C702.74 129.235 700.274 126.775 702.74 126.775C702.74 124.314 702.74 124.314 700.274 124.314C700.274 129.235 692.877 126.775 685.479 126.775C683.014 126.775 680.548 126.775 678.082 126.775C675.616 126.775 673.151 126.775 670.685 126.775C670.685 126.775 670.685 129.235 668.219 129.235C663.288 126.775 658.356 129.235 653.425 129.235C650.959 126.775 648.493 129.235 646.027 129.235L646.027 126.775C643.562 126.775 643.562 129.235 641.096 129.235C641.096 129.235 638.63 129.235 638.63 131.695C638.63 131.695 636.164 131.695 638.63 134.155L638.63 136.615L636.164 136.615C631.233 139.075 628.767 141.536 626.301 141.536L623.836 141.536C621.37 141.536 621.37 141.536 621.37 141.536L618.904 141.536C618.904 136.615 611.507 136.615 611.507 134.155C606.575 134.155 594.247 134.155 594.247 126.775C591.781 126.775 591.781 124.314 589.315 126.775C589.315 129.235 591.781 129.235 591.781 129.235C589.315 129.235 589.315 129.235 586.849 129.235C586.849 126.775 586.849 126.775 586.849 126.775C586.849 124.314 584.384 126.775 581.918 126.775L579.452 126.775C576.986 126.775 576.986 126.775 574.521 126.775C572.055 126.775 569.589 126.775 569.589 126.775C567.123 126.775 564.658 126.775 562.192 126.775L559.726 126.775C559.726 124.314 557.26 126.775 554.795 126.775C552.329 126.775 552.329 126.775 549.863 126.775L547.397 126.775C547.397 124.314 542.466 126.775 540 124.314C540 121.854 542.466 121.854 540 121.854C540 121.854 537.534 121.854 535.069 121.854C532.603 121.854 532.603 121.854 530.137 121.854C530.137 119.394 532.603 119.394 535.069 116.934C532.603 116.934 535.069 114.474 532.603 114.474C530.137 114.474 530.137 119.394 527.671 116.934C530.137 116.934 530.137 119.394 527.671 119.394L527.671 121.854C522.74 119.394 520.274 124.314 515.342 121.854C510.411 121.854 512.877 119.394 512.877 116.934C510.411 119.394 507.945 119.394 507.945 119.394C507.945 116.934 510.411 116.934 510.411 116.934L507.945 116.934C507.945 119.394 507.945 119.394 507.945 121.854L505.479 121.854C505.479 121.854 505.479 119.394 503.014 119.394C503.014 121.854 495.616 116.934 500.548 119.394C498.082 121.854 498.082 116.934 493.151 119.394C498.082 119.394 498.082 119.394 493.151 116.934C493.151 119.394 493.151 121.854 490.685 121.854L490.685 124.314C485.753 121.854 485.753 124.314 483.288 124.314L483.288 121.854C483.288 119.394 480.822 121.854 478.356 121.854C475.89 121.854 473.425 119.394 473.425 121.854C470.959 121.854 468.493 121.854 468.493 119.394L466.027 119.394C463.562 119.394 463.562 119.394 461.096 119.394C458.63 114.474 463.562 119.394 463.562 116.934C461.096 116.934 458.63 116.934 456.164 116.934C453.699 116.934 453.699 119.394 453.699 119.394C448.767 116.934 448.767 119.394 446.301 119.394C443.836 121.854 441.37 124.314 443.836 126.775C438.904 126.775 438.904 129.235 436.438 126.775L433.973 126.775C433.973 129.235 429.041 129.235 433.973 131.695C431.507 131.695 431.507 134.155 429.041 131.695C429.041 134.155 426.575 134.155 426.575 134.155L424.11 134.155C424.11 131.695 421.644 131.695 419.178 131.695C419.178 131.695 419.178 131.695 419.178 129.235C414.247 129.235 416.712 136.615 419.178 134.155C416.712 134.155 414.247 134.155 414.247 136.615C414.247 134.155 411.781 136.615 411.781 136.615C411.781 136.615 414.247 134.155 411.781 134.155C409.315 134.155 411.781 131.695 411.781 131.695L409.315 131.695C406.849 131.695 406.849 131.695 406.849 134.155C409.315 134.155 409.315 134.155 409.315 136.615C406.849 136.615 406.849 136.615 404.384 136.615C401.918 141.536 409.315 139.075 409.315 141.536C406.849 141.536 404.384 141.536 404.384 141.536C401.918 141.536 396.986 141.536 396.986 143.996C394.521 146.456 394.521 141.536 389.589 143.996C389.589 141.536 384.658 143.996 387.123 141.536C387.123 139.075 384.658 139.075 379.726 139.075L382.192 141.536L379.726 141.536C377.26 139.075 374.795 139.075 374.795 136.615L374.795 139.075L372.329 139.075C369.863 139.075 369.863 141.536 367.397 139.075L364.932 139.075L362.466 139.075C362.466 141.536 362.466 139.075 360 139.075C357.534 139.075 357.534 141.536 357.534 139.075C355.069 139.075 352.603 139.075 352.603 136.615L352.603 139.075C352.603 141.536 355.068 139.075 355.068 141.536C355.068 141.536 355.068 141.536 355.068 143.996C352.603 143.996 350.137 143.996 347.671 143.996C345.205 143.996 345.206 143.996 342.74 143.996C342.74 139.075 347.671 141.536 350.137 136.615L347.671 136.615L345.206 136.615C342.74 139.075 340.274 141.536 337.808 141.536C335.343 141.536 332.877 141.536 332.877 139.075C330.411 141.536 327.945 141.536 325.479 143.996C325.479 146.456 318.082 146.456 323.014 151.376C323.014 153.836 320.548 151.376 320.548 153.836C315.616 153.836 313.151 156.297 310.685 158.757C308.219 158.757 305.753 158.757 305.753 158.757C305.753 158.757 305.753 156.297 303.288 156.297C303.288 156.297 303.288 158.757 300.822 158.757C300.822 156.297 298.356 156.297 298.356 158.757C295.89 158.757 298.356 153.836 295.89 153.836C295.89 153.836 295.89 153.836 293.425 153.836C293.425 158.757 288.493 153.836 286.027 153.836C283.562 151.376 278.63 153.836 276.164 153.836C276.164 151.376 278.63 153.836 278.63 151.376C276.164 148.916 276.164 151.376 276.164 153.836L273.699 153.836C271.233 153.836 271.233 153.836 271.233 156.297C266.301 156.297 268.767 153.836 258.904 156.297C256.438 158.757 253.973 156.297 251.507 156.297C251.507 156.297 249.041 153.836 251.507 153.836C246.575 151.376 246.575 156.297 244.11 153.836L241.644 153.836C241.644 153.836 241.644 153.836 241.644 156.297C239.178 156.297 239.178 156.297 236.712 156.297L236.712 153.836C234.247 153.836 234.247 156.297 231.781 153.836C229.315 151.376 231.781 146.456 234.247 146.456C229.315 146.456 234.247 143.996 231.781 143.996C229.315 146.456 226.849 143.996 229.315 141.536C226.849 141.536 226.849 141.536 224.384 141.536L221.918 141.536C219.452 141.536 216.986 139.075 214.521 141.536L212.055 141.536L209.589 141.536C209.589 141.536 209.589 141.536 207.123 141.536C207.123 141.536 204.658 143.996 202.192 143.996C199.726 143.996 199.726 143.996 199.726 143.996C202.192 143.996 207.123 141.536 197.26 141.536L194.795 141.536C189.863 139.075 192.329 143.996 194.795 143.996C194.795 143.996 194.795 143.996 192.329 143.996C192.329 143.996 192.329 143.996 189.863 143.996C184.932 141.536 182.466 143.996 177.534 143.996C177.534 141.536 180 141.536 175.069 141.536L175.069 143.996C172.603 143.996 172.603 143.996 170.137 143.996C167.671 141.536 172.603 141.536 170.137 141.536C167.671 141.536 167.671 143.996 165.206 141.536C162.74 141.536 162.74 141.536 162.74 139.075C160.274 139.075 165.206 136.615 162.74 134.155C160.274 134.155 157.808 136.615 155.343 134.155C147.945 139.075 152.877 141.536 147.945 141.536L145.479 141.536L143.014 141.536L140.548 141.536L140.548 139.075L138.082 139.075L138.082 141.536C135.616 141.536 135.617 141.536 135.617 143.996C135.617 143.996 135.617 141.536 133.151 141.536C130.685 141.536 130.685 141.536 130.685 141.536C130.685 143.996 128.219 141.536 128.219 141.536C123.288 141.536 120.822 139.075 118.356 136.615C115.891 134.155 115.891 131.695 118.356 131.695L118.356 129.235C115.891 129.235 115.89 131.695 113.425 131.695L110.959 131.695L110.959 129.235L113.425 129.235L113.425 126.775C110.959 126.775 108.493 124.314 106.027 124.314C106.027 121.854 106.027 121.854 106.027 121.854L108.493 119.394L108.493 116.934C103.562 119.394 98.6302 119.394 98.6302 116.934L96.1645 116.934L93.6987 114.474C93.6987 114.474 93.6987 114.474 96.1645 114.474L96.1645 112.013C96.1645 112.013 93.6987 112.013 91.2329 112.013C91.2329 112.013 91.233 112.013 88.7672 112.013C88.7672 112.013 86.3015 112.013 86.3015 109.553C83.8357 109.553 86.3015 109.553 86.3015 112.013C83.8357 112.013 83.8357 112.013 83.8357 112.013C83.8357 112.013 83.8357 112.013 83.8357 109.553C81.3699 109.553 81.3699 109.553 81.3699 112.013C81.3699 112.013 81.3699 112.013 78.9042 112.013L76.4384 112.013L71.507 109.553C71.507 109.553 71.507 112.013 69.0412 112.013C69.0412 112.013 69.0412 109.553 71.507 109.553L71.507 107.093C69.0412 107.093 69.0412 109.553 69.0412 112.013L66.5754 112.013L69.0412 109.553C64.1097 107.093 61.6439 114.474 61.6439 109.553L59.1782 109.553C56.7124 104.633 59.1782 107.093 54.2466 109.553C51.7809 109.553 44.3836 109.553 39.4521 109.553C36.9863 112.013 36.9864 107.093 32.0549 107.093C32.0549 107.093 32.0549 107.093 29.5891 107.093C27.1234 107.093 27.1234 107.093 29.5891 107.093C27.1234 107.093 24.6577 107.093 22.1919 107.093C19.7261 107.093 12.3288 104.633 12.3288 107.093C9.86304 109.553 4.93159 104.633 6.70592e-05 107.093L6.10352e-05 176L720 176Z" fill="white"/>
<path d="M-57.7397 56.4667C-55.4795 56.4667 -55.4795 56.4667 -57.7397 56.4667C-48.6986 58.7333 -44.1781 56.4667 -37.3973 56.4667C-35.137 56.4667 -35.137 54.2 -35.137 56.4667C-30.6164 56.4667 -23.8356 54.2 -21.5753 54.2H-19.3151C-17.0548 51.9333 -14.7945 51.9333 -12.5342 54.2C-12.5342 56.4667 -12.5342 58.7333 -10.274 61C-10.274 58.7333 -10.274 58.7333 -10.274 56.4667C-10.274 54.2 -8.0137 54.2 -8.0137 54.2C-5.75343 54.2 -5.75342 51.9333 -5.75342 54.2C-3.49315 54.2 -1.23288 54.2 1.0274 54.2C3.28767 49.6667 7.80821 51.9333 10.0685 47.4C12.3288 47.4 12.3288 49.6667 14.589 49.6667C14.589 49.6667 16.8493 49.6667 16.8493 47.4H19.1096C21.3699 49.6667 21.3699 47.4 23.6301 47.4C23.6301 49.6667 23.6301 49.6667 23.6301 49.6667C25.8904 49.6667 25.8904 45.1333 28.1507 45.1333C28.1507 47.4 30.4109 45.1333 32.6712 45.1333C34.9315 45.1333 37.1918 42.8667 39.4521 42.8667C41.7123 42.8667 41.7123 42.8667 41.7123 42.8667C41.7123 40.6 39.452 40.6 41.7123 38.3333C43.9726 38.3333 43.9726 36.0667 46.2329 36.0667C48.4931 38.3333 48.4931 33.8 50.7534 36.0667C48.4931 38.3333 50.7534 38.3333 53.0137 38.3333C53.0137 36.0667 53.0137 36.0667 55.274 36.0667H57.5342C59.7945 36.0667 59.7945 33.8 62.0548 31.5333C64.3151 36.0667 66.5753 31.5333 68.8356 33.8C68.8356 31.5333 71.0959 31.5333 71.0959 29.2667C73.3562 31.5333 68.8356 31.5333 68.8356 36.0667H71.0959C71.0959 36.0667 71.0959 36.0667 73.3562 36.0667C75.6164 38.3333 75.6164 40.6 75.6164 40.6C75.6164 40.6 77.8767 36.0667 77.8767 38.3333H80.137C80.137 36.0667 82.3973 36.0667 84.6575 36.0667V38.3333C84.6575 36.0667 86.9178 36.0667 89.1781 36.0667C93.6986 33.8 95.9589 38.3333 95.9589 36.0667C98.2192 33.8 98.2192 31.5333 98.2192 31.5333H100.479C100.479 33.8 102.74 29.2667 105 31.5333V29.2667C105 31.5333 107.26 31.5333 107.26 33.8C109.521 33.8 109.521 31.5333 109.521 33.8C111.781 33.8 114.041 33.8 116.301 33.8C116.301 33.8 116.301 29.2667 118.562 31.5333V33.8C120.822 33.8 120.822 33.8 120.822 33.8C120.822 36.0667 120.822 36.0667 123.082 36.0667C125.342 36.0667 125.342 38.3333 127.603 38.3333V36.0667C129.863 36.0667 134.384 29.2667 134.384 33.8C136.644 31.5333 134.384 33.8 136.644 33.8C136.644 31.5333 138.904 33.8 141.164 33.8H143.425C145.685 36.0667 150.205 38.3333 150.205 38.3333C156.986 36.0667 159.247 38.3333 159.247 38.3333H161.507C163.767 33.8 163.767 38.3333 166.027 40.6C166.027 38.3333 168.288 38.3333 170.548 38.3333C170.548 40.6 172.808 42.8667 175.068 42.8667C175.068 40.6 175.068 40.6 177.329 40.6C179.589 40.6 179.589 47.4 181.849 45.1333C179.589 45.1333 184.11 42.8667 181.849 42.8667C181.849 45.1333 184.11 45.1333 184.11 45.1333C181.849 45.1333 184.11 47.4 184.11 47.4C186.37 45.1333 184.11 40.6 186.37 42.8667C186.37 47.4 190.89 40.6 190.89 42.8667C193.151 42.8667 190.89 45.1333 190.89 45.1333C193.151 42.8667 193.151 42.8667 195.411 40.6H197.671V42.8667C199.932 42.8667 197.671 45.1333 199.931 45.1333C199.931 42.8667 197.671 42.8667 197.671 42.8667C199.932 42.8667 199.931 45.1333 202.192 45.1333C204.452 45.1333 204.452 45.1333 204.452 45.1333C204.452 42.8667 204.452 42.8667 204.452 40.6C204.452 38.3333 204.452 42.8667 206.712 42.8667C206.712 42.8667 208.973 42.8667 211.233 42.8667C211.233 42.8667 213.493 45.1333 213.493 42.8667C213.493 42.8667 213.493 42.8667 215.753 42.8667V45.1333C218.014 45.1333 220.274 45.1333 220.274 45.1333C220.274 45.1333 220.274 45.1333 222.534 45.1333C222.534 45.1333 220.274 45.1333 220.274 47.4C224.794 47.4 222.534 49.6667 227.055 49.6667C227.055 49.6667 229.315 49.6667 229.315 47.4C231.575 47.4 229.315 49.6667 229.315 51.9333C231.575 51.9333 231.575 54.2 233.836 51.9333C238.356 54.2 236.096 51.9333 236.096 51.9333C236.096 51.9333 236.096 51.9333 236.096 54.2C240.616 51.9333 236.096 56.4667 238.356 56.4667V54.2V51.9333C242.877 51.9333 242.877 54.2 245.137 54.2C245.137 54.2 247.397 54.2 247.397 56.4667C249.658 56.4667 251.918 56.4667 254.178 54.2C254.178 54.2 254.178 54.2 254.178 56.4667C256.438 54.2 258.699 58.7333 258.699 54.2C258.699 51.9333 260.959 51.9333 263.219 49.6667C263.219 49.6667 263.219 49.6667 265.479 49.6667V51.9333C267.74 51.9333 267.74 51.9333 270 49.6667V51.9333C270 51.9333 270 51.9333 272.26 51.9333H274.521C274.521 51.9333 274.521 51.9333 279.041 54.2H281.301H283.562C285.822 54.2 285.822 54.2 285.822 54.2C288.082 54.2 288.082 54.2 288.082 54.2C290.342 54.2 292.603 54.2 294.863 54.2C294.863 54.2 294.863 51.9333 292.603 51.9333H294.863C297.123 51.9333 297.123 51.9333 299.384 51.9333C301.644 51.9333 299.384 49.6667 303.904 49.6667C306.164 49.6667 303.904 47.4 306.164 47.4C306.164 47.4 308.425 42.8667 308.425 45.1333C310.685 45.1333 312.945 42.8667 312.945 45.1333V42.8667C315.205 40.6 315.205 40.6 317.466 38.3333C317.466 38.3333 317.466 36.0667 319.726 36.0667C319.726 33.8 321.986 36.0667 321.986 36.0667C324.247 36.0667 324.247 33.8 326.507 36.0667C331.027 36.0667 328.767 31.5333 333.288 31.5333C333.288 31.5333 333.288 31.5333 333.288 29.2667C337.808 24.7333 333.288 33.8 335.548 31.5333C337.808 31.5333 335.548 29.2667 337.808 29.2667C337.808 29.2667 337.808 29.2667 340.069 29.2667H342.329C344.589 29.2667 344.589 27 344.589 27C344.589 24.7333 346.849 24.7333 349.11 22.4667C351.37 22.4667 351.37 22.4667 351.37 22.4667C351.37 24.7333 353.63 24.7333 353.63 27C355.89 27 355.89 24.7333 358.151 24.7333C358.151 24.7333 358.151 24.7333 360.411 24.7333H362.671V27C364.932 27 364.931 27 364.931 27H367.192C367.192 27 367.192 27 369.452 29.2667C371.712 29.2667 371.712 31.5333 371.712 29.2667C371.712 29.2667 371.712 24.7333 373.973 27C373.973 29.2667 373.973 31.5333 376.233 31.5333C378.493 29.2667 378.493 27 380.753 24.7333C383.014 24.7333 385.274 27 385.274 27L392.055 29.2667C392.055 29.2667 394.315 29.2667 396.575 33.8C398.836 33.8 398.836 33.8 398.836 33.8C401.096 36.0667 398.836 33.8 401.096 33.8V36.0667C403.356 36.0667 403.356 36.0667 403.356 36.0667C403.356 33.8 405.616 33.8 407.877 33.8H410.137C412.397 33.8 412.397 33.8 414.658 33.8C414.658 33.8 414.658 33.8 412.397 31.5333H414.658C414.658 33.8 414.658 33.8 416.918 33.8C416.918 33.8 416.918 33.8 416.918 31.5333V29.2667C416.918 29.2667 416.918 31.5333 414.658 31.5333L437.26 38.3333C437.26 38.3333 437.26 38.3333 437.26 36.0667C439.521 36.0667 439.521 36.0667 439.521 38.3333H441.781C444.041 38.3333 444.041 42.8667 448.562 40.6C448.562 38.3333 448.562 36.0667 450.822 38.3333C453.082 40.6 457.603 36.0667 462.123 38.3333C464.384 38.3333 464.384 40.6 464.384 38.3333C468.904 36.0667 473.425 38.3333 477.945 38.3333C480.205 36.0667 477.945 33.8 480.205 29.2667C482.466 29.2667 482.466 27 482.466 27C482.466 29.2667 480.205 29.2667 480.205 29.2667C482.466 29.2667 482.466 27 484.726 29.2667H486.986C486.986 29.2667 486.986 29.2667 489.247 29.2667C491.507 29.2667 491.507 29.2667 491.507 29.2667C493.767 29.2667 496.027 31.5333 498.288 31.5333C500.548 29.2667 500.548 33.8 502.808 31.5333C502.808 29.2667 502.808 29.2667 505.068 29.2667V31.5333C507.329 29.2667 509.589 31.5333 511.849 31.5333C509.589 29.2667 514.11 33.8 514.11 29.2667C514.11 29.2667 514.11 27 516.37 27C518.63 27 518.63 27 523.151 27C525.411 24.7333 523.151 24.7333 523.151 22.4667C525.411 22.4667 527.671 22.4667 527.671 22.4667C529.931 22.4667 529.932 22.4667 532.192 22.4667C532.192 22.4667 534.452 22.4667 534.452 20.2C534.452 20.2 536.712 20.2 536.712 17.9333C536.712 17.9333 536.712 20.2 534.452 20.2C536.712 22.4667 538.973 20.2 541.233 20.2C543.493 17.9333 541.233 15.6667 543.493 13.4C545.753 11.1333 543.493 11.1333 543.493 11.1333H545.753C548.014 11.1333 545.753 15.6667 548.014 15.6667C552.534 17.9333 554.794 15.6667 557.055 17.9333C559.315 17.9333 559.315 15.6667 561.575 17.9333C563.836 20.2 566.096 13.4 570.616 17.9333C572.877 17.9333 572.877 15.6667 572.877 17.9333C572.877 17.9333 579.658 15.6667 579.658 17.9333C579.658 15.6667 581.918 17.9333 581.918 15.6667C579.658 15.6667 577.397 15.6667 575.137 13.4H577.397C579.658 13.4 579.658 13.4 579.658 13.4C579.658 15.6667 579.658 13.4 581.918 13.4V15.6667V17.9333C586.438 17.9333 581.918 17.9333 581.918 15.6667C584.178 15.6667 584.178 15.6667 584.178 13.4V15.6667C586.438 15.6667 588.699 15.6667 588.699 13.4H586.438C588.699 13.4 588.699 13.4 588.699 13.4C588.699 13.4 590.959 13.4 590.959 11.1333L597.74 8.86667C600 8.86667 600 8.86667 600 8.86667V0H-60V58.7333C-57.7397 58.7333 -57.7397 58.7333 -57.7397 56.4667Z" fill="white"/>
</svg>
