<svg width="720" height="406" viewBox="0 0 720 406" fill="none" xmlns="http://www.w3.org/2000/svg">
<rect y="156" width="720" height="250" fill="#212121"/>
<path d="M720 406L720 359.235C717.534 359.235 715.068 361.695 715.068 361.695C710.137 361.695 707.671 361.695 705.205 359.235L702.74 359.235C702.74 359.235 700.274 356.775 702.74 356.775C702.74 354.314 702.74 354.314 700.274 354.314C700.274 359.235 692.877 356.775 685.479 356.775C683.014 356.775 680.548 356.775 678.082 356.775C675.616 356.775 673.151 356.775 670.685 356.775C670.685 356.775 670.685 359.235 668.219 359.235C663.288 356.775 658.356 359.235 653.425 359.235C650.959 356.775 648.493 359.235 646.027 359.235L646.027 356.775C643.562 356.775 643.562 359.235 641.096 359.235C641.096 359.235 638.63 359.235 638.63 361.695C638.63 361.695 636.164 361.695 638.63 364.155L638.63 366.615L636.164 366.615C631.233 369.075 628.767 371.536 626.301 371.536L623.836 371.536C621.37 371.536 621.37 371.536 621.37 371.536L618.904 371.536C618.904 366.615 611.507 366.615 611.507 364.155C606.575 364.155 594.247 364.155 594.247 356.775C591.781 356.775 591.781 354.314 589.315 356.775C589.315 359.235 591.781 359.235 591.781 359.235C589.315 359.235 589.315 359.235 586.849 359.235C586.849 356.775 586.849 356.775 586.849 356.775C586.849 354.314 584.384 356.775 581.918 356.775L579.452 356.775C576.986 356.775 576.986 356.775 574.521 356.775C572.055 356.775 569.589 356.775 569.589 356.775C567.123 356.775 564.658 356.775 562.192 356.775L559.726 356.775C559.726 354.314 557.26 356.775 554.795 356.775C552.329 356.775 552.329 356.775 549.863 356.775L547.397 356.775C547.397 354.314 542.466 356.775 540 354.314C540 351.854 542.466 351.854 540 351.854C540 351.854 537.534 351.854 535.069 351.854C532.603 351.854 532.603 351.854 530.137 351.854C530.137 349.394 532.603 349.394 535.069 346.934C532.603 346.934 535.069 344.474 532.603 344.474C530.137 344.474 530.137 349.394 527.671 346.934C530.137 346.934 530.137 349.394 527.671 349.394L527.671 351.854C522.74 349.394 520.274 354.314 515.342 351.854C510.411 351.854 512.877 349.394 512.877 346.934C510.411 349.394 507.945 349.394 507.945 349.394C507.945 346.934 510.411 346.934 510.411 346.934L507.945 346.934C507.945 349.394 507.945 349.394 507.945 351.854L505.479 351.854C505.479 351.854 505.479 349.394 503.014 349.394C503.014 351.854 495.616 346.934 500.548 349.394C498.082 351.854 498.082 346.934 493.151 349.394C498.082 349.394 498.082 349.394 493.151 346.934C493.151 349.394 493.151 351.854 490.685 351.854L490.685 354.314C485.753 351.854 485.753 354.314 483.288 354.314L483.288 351.854C483.288 349.394 480.822 351.854 478.356 351.854C475.89 351.854 473.425 349.394 473.425 351.854C470.959 351.854 468.493 351.854 468.493 349.394L466.027 349.394C463.562 349.394 463.562 349.394 461.096 349.394C458.63 344.474 463.562 349.394 463.562 346.934C461.096 346.934 458.63 346.934 456.164 346.934C453.699 346.934 453.699 349.394 453.699 349.394C448.767 346.934 448.767 349.394 446.301 349.394C443.836 351.854 441.37 354.314 443.836 356.775C438.904 356.775 438.904 359.235 436.438 356.775L433.973 356.775C433.973 359.235 429.041 359.235 433.973 361.695C431.507 361.695 431.507 364.155 429.041 361.695C429.041 364.155 426.575 364.155 426.575 364.155L424.11 364.155C424.11 361.695 421.644 361.695 419.178 361.695C419.178 361.695 419.178 361.695 419.178 359.235C414.247 359.235 416.712 366.615 419.178 364.155C416.712 364.155 414.247 364.155 414.247 366.615C414.247 364.155 411.781 366.615 411.781 366.615C411.781 366.615 414.247 364.155 411.781 364.155C409.315 364.155 411.781 361.695 411.781 361.695L409.315 361.695C406.849 361.695 406.849 361.695 406.849 364.155C409.315 364.155 409.315 364.155 409.315 366.615C406.849 366.615 406.849 366.615 404.384 366.615C401.918 371.536 409.315 369.075 409.315 371.536C406.849 371.536 404.384 371.536 404.384 371.536C401.918 371.536 396.986 371.536 396.986 373.996C394.521 376.456 394.521 371.536 389.589 373.996C389.589 371.536 384.658 373.996 387.123 371.536C387.123 369.075 384.658 369.075 379.726 369.075L382.192 371.536L379.726 371.536C377.26 369.075 374.795 369.075 374.795 366.615L374.795 369.075L372.329 369.075C369.863 369.075 369.863 371.536 367.397 369.075L364.932 369.075L362.466 369.075C362.466 371.536 362.466 369.075 360 369.075C357.534 369.075 357.534 371.536 357.534 369.075C355.069 369.075 352.603 369.075 352.603 366.615L352.603 369.075C352.603 371.536 355.068 369.075 355.068 371.536C355.068 371.536 355.068 371.536 355.068 373.996C352.603 373.996 350.137 373.996 347.671 373.996C345.205 373.996 345.206 373.996 342.74 373.996C342.74 369.075 347.671 371.536 350.137 366.615L347.671 366.615L345.206 366.615C342.74 369.075 340.274 371.536 337.808 371.536C335.343 371.536 332.877 371.536 332.877 369.075C330.411 371.536 327.945 371.536 325.479 373.996C325.479 376.456 318.082 376.456 323.014 381.376C323.014 383.836 320.548 381.376 320.548 383.836C315.616 383.836 313.151 386.297 310.685 388.757C308.219 388.757 305.753 388.757 305.753 388.757C305.753 388.757 305.753 386.297 303.288 386.297C303.288 386.297 303.288 388.757 300.822 388.757C300.822 386.297 298.356 386.297 298.356 388.757C295.89 388.757 298.356 383.836 295.89 383.836C295.89 383.836 295.89 383.836 293.425 383.836C293.425 388.757 288.493 383.836 286.027 383.836C283.562 381.376 278.63 383.836 276.164 383.836C276.164 381.376 278.63 383.836 278.63 381.376C276.164 378.916 276.164 381.376 276.164 383.836L273.699 383.836C271.233 383.836 271.233 383.836 271.233 386.297C266.301 386.297 268.767 383.836 258.904 386.297C256.438 388.757 253.973 386.297 251.507 386.297C251.507 386.297 249.041 383.836 251.507 383.836C246.575 381.376 246.575 386.297 244.11 383.836L241.644 383.836C241.644 383.836 241.644 383.836 241.644 386.297C239.178 386.297 239.178 386.297 236.712 386.297L236.712 383.836C234.247 383.836 234.247 386.297 231.781 383.836C229.315 381.376 231.781 376.456 234.247 376.456C229.315 376.456 234.247 373.996 231.781 373.996C229.315 376.456 226.849 373.996 229.315 371.536C226.849 371.536 226.849 371.536 224.384 371.536L221.918 371.536C219.452 371.536 216.986 369.075 214.521 371.536L212.055 371.536L209.589 371.536C209.589 371.536 209.589 371.536 207.123 371.536C207.123 371.536 204.658 373.996 202.192 373.996C199.726 373.996 199.726 373.996 199.726 373.996C202.192 373.996 207.123 371.536 197.26 371.536L194.795 371.536C189.863 369.075 192.329 373.996 194.795 373.996C194.795 373.996 194.795 373.996 192.329 373.996C192.329 373.996 192.329 373.996 189.863 373.996C184.932 371.536 182.466 373.996 177.534 373.996C177.534 371.536 180 371.536 175.069 371.536L175.069 373.996C172.603 373.996 172.603 373.996 170.137 373.996C167.671 371.536 172.603 371.536 170.137 371.536C167.671 371.536 167.671 373.996 165.206 371.536C162.74 371.536 162.74 371.536 162.74 369.075C160.274 369.075 165.206 366.615 162.74 364.155C160.274 364.155 157.808 366.615 155.343 364.155C147.945 369.075 152.877 371.536 147.945 371.536L145.479 371.536L143.014 371.536L140.548 371.536L140.548 369.075L138.082 369.075L138.082 371.536C135.616 371.536 135.617 371.536 135.617 373.996C135.617 373.996 135.617 371.536 133.151 371.536C130.685 371.536 130.685 371.536 130.685 371.536C130.685 373.996 128.219 371.536 128.219 371.536C123.288 371.536 120.822 369.075 118.356 366.615C115.891 364.155 115.891 361.695 118.356 361.695L118.356 359.235C115.891 359.235 115.89 361.695 113.425 361.695L110.959 361.695L110.959 359.235L113.425 359.235L113.425 356.775C110.959 356.775 108.493 354.314 106.027 354.314C106.027 351.854 106.027 351.854 106.027 351.854L108.493 349.394L108.493 346.934C103.562 349.394 98.6302 349.394 98.6302 346.934L96.1645 346.934L93.6987 344.474C93.6987 344.474 93.6987 344.474 96.1645 344.474L96.1645 342.013C96.1645 342.013 93.6987 342.013 91.2329 342.013C91.2329 342.013 91.233 342.013 88.7672 342.013C88.7672 342.013 86.3015 342.013 86.3015 339.553C83.8357 339.553 86.3015 339.553 86.3015 342.013C83.8357 342.013 83.8357 342.013 83.8357 342.013C83.8357 342.013 83.8357 342.013 83.8357 339.553C81.3699 339.553 81.3699 339.553 81.3699 342.013C81.3699 342.013 81.3699 342.013 78.9042 342.013L76.4384 342.013L71.507 339.553C71.507 339.553 71.507 342.013 69.0412 342.013C69.0412 342.013 69.0412 339.553 71.507 339.553L71.507 337.093C69.0412 337.093 69.0412 339.553 69.0412 342.013L66.5754 342.013L69.0412 339.553C64.1097 337.093 61.6439 344.474 61.6439 339.553L59.1782 339.553C56.7124 334.633 59.1782 337.093 54.2466 339.553C51.7809 339.553 44.3836 339.553 39.4521 339.553C36.9863 342.013 36.9864 337.093 32.0549 337.093C32.0549 337.093 32.0549 337.093 29.5891 337.093C27.1234 337.093 27.1234 337.093 29.5891 337.093C27.1234 337.093 24.6577 337.093 22.1919 337.093C19.7261 337.093 12.3288 334.633 12.3288 337.093C9.86304 339.553 4.93159 334.633 6.70592e-05 337.093L6.10352e-05 406L720 406Z" fill="white"/>
<path d="M-57.7397 286.467C-55.4795 286.467 -55.4795 286.467 -57.7397 286.467C-48.6986 288.733 -44.1781 286.467 -37.3973 286.467C-35.137 286.467 -35.137 284.2 -35.137 286.467C-30.6164 286.467 -23.8356 284.2 -21.5753 284.2H-19.3151C-17.0548 281.933 -14.7945 281.933 -12.5342 284.2C-12.5342 286.467 -12.5342 288.733 -10.274 291C-10.274 288.733 -10.274 288.733 -10.274 286.467C-10.274 284.2 -8.0137 284.2 -8.0137 284.2C-5.75343 284.2 -5.75342 281.933 -5.75342 284.2C-3.49315 284.2 -1.23288 284.2 1.0274 284.2C3.28767 279.667 7.80821 281.933 10.0685 277.4C12.3288 277.4 12.3288 279.667 14.589 279.667C14.589 279.667 16.8493 279.667 16.8493 277.4H19.1096C21.3699 279.667 21.3699 277.4 23.6301 277.4C23.6301 279.667 23.6301 279.667 23.6301 279.667C25.8904 279.667 25.8904 275.133 28.1507 275.133C28.1507 277.4 30.4109 275.133 32.6712 275.133C34.9315 275.133 37.1918 272.867 39.4521 272.867C41.7123 272.867 41.7123 272.867 41.7123 272.867C41.7123 270.6 39.452 270.6 41.7123 268.333C43.9726 268.333 43.9726 266.067 46.2329 266.067C48.4931 268.333 48.4931 263.8 50.7534 266.067C48.4931 268.333 50.7534 268.333 53.0137 268.333C53.0137 266.067 53.0137 266.067 55.274 266.067H57.5342C59.7945 266.067 59.7945 263.8 62.0548 261.533C64.3151 266.067 66.5753 261.533 68.8356 263.8C68.8356 261.533 71.0959 261.533 71.0959 259.267C73.3562 261.533 68.8356 261.533 68.8356 266.067H71.0959C71.0959 266.067 71.0959 266.067 73.3562 266.067C75.6164 268.333 75.6164 270.6 75.6164 270.6C75.6164 270.6 77.8767 266.067 77.8767 268.333H80.137C80.137 266.067 82.3973 266.067 84.6575 266.067V268.333C84.6575 266.067 86.9178 266.067 89.1781 266.067C93.6986 263.8 95.9589 268.333 95.9589 266.067C98.2192 263.8 98.2192 261.533 98.2192 261.533H100.479C100.479 263.8 102.74 259.267 105 261.533V259.267C105 261.533 107.26 261.533 107.26 263.8C109.521 263.8 109.521 261.533 109.521 263.8C111.781 263.8 114.041 263.8 116.301 263.8C116.301 263.8 116.301 259.267 118.562 261.533V263.8C120.822 263.8 120.822 263.8 120.822 263.8C120.822 266.067 120.822 266.067 123.082 266.067C125.342 266.067 125.342 268.333 127.603 268.333V266.067C129.863 266.067 134.384 259.267 134.384 263.8C136.644 261.533 134.384 263.8 136.644 263.8C136.644 261.533 138.904 263.8 141.164 263.8H143.425C145.685 266.067 150.205 268.333 150.205 268.333C156.986 266.067 159.247 268.333 159.247 268.333H161.507C163.767 263.8 163.767 268.333 166.027 270.6C166.027 268.333 168.288 268.333 170.548 268.333C170.548 270.6 172.808 272.867 175.068 272.867C175.068 270.6 175.068 270.6 177.329 270.6C179.589 270.6 179.589 277.4 181.849 275.133C179.589 275.133 184.11 272.867 181.849 272.867C181.849 275.133 184.11 275.133 184.11 275.133C181.849 275.133 184.11 277.4 184.11 277.4C186.37 275.133 184.11 270.6 186.37 272.867C186.37 277.4 190.89 270.6 190.89 272.867C193.151 272.867 190.89 275.133 190.89 275.133C193.151 272.867 193.151 272.867 195.411 270.6H197.671V272.867C199.932 272.867 197.671 275.133 199.931 275.133C199.931 272.867 197.671 272.867 197.671 272.867C199.932 272.867 199.931 275.133 202.192 275.133C204.452 275.133 204.452 275.133 204.452 275.133C204.452 272.867 204.452 272.867 204.452 270.6C204.452 268.333 204.452 272.867 206.712 272.867C206.712 272.867 208.973 272.867 211.233 272.867C211.233 272.867 213.493 275.133 213.493 272.867C213.493 272.867 213.493 272.867 215.753 272.867V275.133C218.014 275.133 220.274 275.133 220.274 275.133C220.274 275.133 220.274 275.133 222.534 275.133C222.534 275.133 220.274 275.133 220.274 277.4C224.794 277.4 222.534 279.667 227.055 279.667C227.055 279.667 229.315 279.667 229.315 277.4C231.575 277.4 229.315 279.667 229.315 281.933C231.575 281.933 231.575 284.2 233.836 281.933C238.356 284.2 236.096 281.933 236.096 281.933C236.096 281.933 236.096 281.933 236.096 284.2C240.616 281.933 236.096 286.467 238.356 286.467V284.2V281.933C242.877 281.933 242.877 284.2 245.137 284.2C245.137 284.2 247.397 284.2 247.397 286.467C249.658 286.467 251.918 286.467 254.178 284.2C254.178 284.2 254.178 284.2 254.178 286.467C256.438 284.2 258.699 288.733 258.699 284.2C258.699 281.933 260.959 281.933 263.219 279.667C263.219 279.667 263.219 279.667 265.479 279.667V281.933C267.74 281.933 267.74 281.933 270 279.667V281.933C270 281.933 270 281.933 272.26 281.933H274.521C274.521 281.933 274.521 281.933 279.041 284.2H281.301H283.562C285.822 284.2 285.822 284.2 285.822 284.2C288.082 284.2 288.082 284.2 288.082 284.2C290.342 284.2 292.603 284.2 294.863 284.2C294.863 284.2 294.863 281.933 292.603 281.933H294.863C297.123 281.933 297.123 281.933 299.384 281.933C301.644 281.933 299.384 279.667 303.904 279.667C306.164 279.667 303.904 277.4 306.164 277.4C306.164 277.4 308.425 272.867 308.425 275.133C310.685 275.133 312.945 272.867 312.945 275.133V272.867C315.205 270.6 315.205 270.6 317.466 268.333C317.466 268.333 317.466 266.067 319.726 266.067C319.726 263.8 321.986 266.067 321.986 266.067C324.247 266.067 324.247 263.8 326.507 266.067C331.027 266.067 328.767 261.533 333.288 261.533C333.288 261.533 333.288 261.533 333.288 259.267C337.808 254.733 333.288 263.8 335.548 261.533C337.808 261.533 335.548 259.267 337.808 259.267C337.808 259.267 337.808 259.267 340.069 259.267H342.329C344.589 259.267 344.589 257 344.589 257C344.589 254.733 346.849 254.733 349.11 252.467C351.37 252.467 351.37 252.467 351.37 252.467C351.37 254.733 353.63 254.733 353.63 257C355.89 257 355.89 254.733 358.151 254.733C358.151 254.733 358.151 254.733 360.411 254.733H362.671V257C364.932 257 364.931 257 364.931 257H367.192C367.192 257 367.192 257 369.452 259.267C371.712 259.267 371.712 261.533 371.712 259.267C371.712 259.267 371.712 254.733 373.973 257C373.973 259.267 373.973 261.533 376.233 261.533C378.493 259.267 378.493 257 380.753 254.733C383.014 254.733 385.274 257 385.274 257L392.055 259.267C392.055 259.267 394.315 259.267 396.575 263.8C398.836 263.8 398.836 263.8 398.836 263.8C401.096 266.067 398.836 263.8 401.096 263.8V266.067C403.356 266.067 403.356 266.067 403.356 266.067C403.356 263.8 405.616 263.8 407.877 263.8H410.137C412.397 263.8 412.397 263.8 414.658 263.8C414.658 263.8 414.658 263.8 412.397 261.533H414.658C414.658 263.8 414.658 263.8 416.918 263.8C416.918 263.8 416.918 263.8 416.918 261.533V259.267C416.918 259.267 416.918 261.533 414.658 261.533L437.26 268.333C437.26 268.333 437.26 268.333 437.26 266.067C439.521 266.067 439.521 266.067 439.521 268.333H441.781C444.041 268.333 444.041 272.867 448.562 270.6C448.562 268.333 448.562 266.067 450.822 268.333C453.082 270.6 457.603 266.067 462.123 268.333C464.384 268.333 464.384 270.6 464.384 268.333C468.904 266.067 473.425 268.333 477.945 268.333C480.205 266.067 477.945 263.8 480.205 259.267C482.466 259.267 482.466 257 482.466 257C482.466 259.267 480.205 259.267 480.205 259.267C482.466 259.267 482.466 257 484.726 259.267H486.986C486.986 259.267 486.986 259.267 489.247 259.267C491.507 259.267 491.507 259.267 491.507 259.267C493.767 259.267 496.027 261.533 498.288 261.533C500.548 259.267 500.548 263.8 502.808 261.533C502.808 259.267 502.808 259.267 505.068 259.267V261.533C507.329 259.267 509.589 261.533 511.849 261.533C509.589 259.267 514.11 263.8 514.11 259.267C514.11 259.267 514.11 257 516.37 257C518.63 257 518.63 257 523.151 257C525.411 254.733 523.151 254.733 523.151 252.467C525.411 252.467 527.671 252.467 527.671 252.467C529.931 252.467 529.932 252.467 532.192 252.467C532.192 252.467 534.452 252.467 534.452 250.2C534.452 250.2 536.712 250.2 536.712 247.933C536.712 247.933 536.712 250.2 534.452 250.2C536.712 252.467 538.973 250.2 541.233 250.2C543.493 247.933 541.233 245.667 543.493 243.4C545.753 241.133 543.493 241.133 543.493 241.133H545.753C548.014 241.133 545.753 245.667 548.014 245.667C552.534 247.933 554.794 245.667 557.055 247.933C559.315 247.933 559.315 245.667 561.575 247.933C563.836 250.2 566.096 243.4 570.616 247.933C572.877 247.933 572.877 245.667 572.877 247.933C572.877 247.933 579.658 245.667 579.658 247.933C579.658 245.667 581.918 247.933 581.918 245.667C579.658 245.667 577.397 245.667 575.137 243.4H577.397C579.658 243.4 579.658 243.4 579.658 243.4C579.658 245.667 579.658 243.4 581.918 243.4V245.667V247.933C586.438 247.933 581.918 247.933 581.918 245.667C584.178 245.667 584.178 245.667 584.178 243.4V245.667C586.438 245.667 588.699 245.667 588.699 243.4H586.438C588.699 243.4 588.699 243.4 588.699 243.4C588.699 243.4 590.959 243.4 590.959 241.133L597.74 238.867C600 238.867 600 238.867 600 238.867V230H-60V288.733C-57.7397 288.733 -57.7397 288.733 -57.7397 286.467Z" fill="white"/>
<path d="M600 0V233H441C465.502 102.312 557.209 23.2132 600 0Z" fill="white"/>
</svg>
