<svg width="30" height="30" viewBox="0 0 30 30" fill="none" xmlns="http://www.w3.org/2000/svg">
<path fill-rule="evenodd" clip-rule="evenodd" d="M14.217 29.9799V20.0891H11V16.1683H14.217V13.2278C14.217 9.85144 16.1887 8 19.0943 8C20.0056 8 20.8696 8.04968 21.4303 8.08191C21.6996 8.09741 21.899 8.10889 22 8.10889V11.703H20.0283C18.4717 11.703 18.1604 12.4653 18.1604 13.6633V16.1683H21.8962L21.3774 20.0891H18.1604V29.6665C24.927 28.2153 30 22.2001 30 15C30 6.7157 23.2843 0 15 0C6.71573 0 0 6.7157 0 15C0 23.0216 6.29666 29.5725 14.217 29.9799Z" fill="#212121"/>
</svg>
