<svg width="30" height="30" viewBox="0 0 30 30" fill="none" xmlns="http://www.w3.org/2000/svg">
<path fill-rule="evenodd" clip-rule="evenodd" d="M14.9541 0C6.69725 0 0 6.88399 0 15.3711C0 22.1608 4.31193 27.9132 10.1835 29.9878C10.9174 30.0821 11.1927 29.6106 11.1927 29.2334C11.1927 28.8562 11.1927 27.9132 11.1927 26.593C7.06422 27.536 6.14679 24.5183 6.14679 24.5183C5.50459 22.7266 4.49541 22.2551 4.49541 22.2551C3.11927 21.3121 4.58716 21.3121 4.58716 21.3121C6.05505 21.4064 6.88073 22.9152 6.88073 22.9152C8.25688 25.2727 10.367 24.6126 11.1927 24.2354C11.2844 23.1981 11.7431 22.538 12.1101 22.1608C8.80734 21.7836 5.3211 20.4634 5.3211 14.5224C5.3211 12.825 5.87156 11.5048 6.88073 10.3731C6.78899 10.0902 6.23853 8.48711 7.06422 6.41249C7.06422 6.41249 8.34862 6.03528 11.1927 8.01561C12.3853 7.6384 13.6697 7.5441 14.9541 7.5441C16.2385 7.5441 17.5229 7.7327 18.7156 8.01561C21.5596 6.03528 22.844 6.41249 22.844 6.41249C23.6697 8.48711 23.1193 10.0902 23.0275 10.4674C23.945 11.5048 24.5872 12.9193 24.5872 14.6167C24.5872 20.5577 21.1009 21.7836 17.7982 22.1608C18.3486 22.6323 18.8073 23.5753 18.8073 24.9898C18.8073 27.0645 18.8073 28.6676 18.8073 29.2334C18.8073 29.6106 19.0826 30.0821 19.8165 29.9878C25.7798 27.9132 30 22.1608 30 15.3711C29.9083 6.88399 23.211 0 14.9541 0Z" fill="#212121"/>
</svg>
