<svg width="30" height="30" viewBox="0 0 30 30" fill="none" xmlns="http://www.w3.org/2000/svg">
<path fill-rule="evenodd" clip-rule="evenodd" d="M30 15C30 23.2843 23.2843 30 15 30C6.71573 30 0 23.2843 0 15C0 6.71573 6.71573 0 15 0C23.2843 0 30 6.71573 30 15ZM22.5444 12.623C22.5444 17.4005 18.9069 22.913 12.2544 22.913C10.2144 22.913 8.3094 22.313 6.7269 21.278C7.0119 21.3155 7.2969 21.3305 7.5894 21.3305C9.2844 21.3305 10.8444 20.753 12.0819 19.7855C10.4994 19.7555 9.1644 18.713 8.7069 17.273C8.9319 17.318 9.1569 17.3405 9.3894 17.3405C9.7194 17.3405 10.0419 17.2955 10.3419 17.213C8.68439 16.8755 7.4394 15.4205 7.4394 13.6655V13.6205C7.9269 13.8905 8.4819 14.0555 9.0744 14.0705C8.0994 13.4255 7.4619 12.3155 7.4619 11.063C7.4619 10.403 7.6419 9.78048 7.9494 9.24798C9.7344 11.438 12.3969 12.878 15.4044 13.028C15.3369 12.7655 15.3069 12.488 15.3069 12.203C15.3069 10.208 16.9269 8.58798 18.9219 8.58798C19.9644 8.58798 20.9019 9.02298 21.5619 9.72798C22.3869 9.56298 23.1594 9.26298 23.8569 8.85048C23.5869 9.69798 23.0169 10.403 22.2669 10.853C23.0019 10.763 23.6994 10.568 24.3444 10.283C23.8569 11.0105 23.2419 11.648 22.5369 12.158C22.5444 12.308 22.5444 12.4655 22.5444 12.623Z" fill="#212121"/>
</svg>
